<svg width="106" height="62" viewBox="0 0 106 62" xmlns="http://www.w3.org/2000/svg">
    <path d="M21.038.375c-5.124.952-9.425 3.213-12.958 6.811-3.734 3.803-5.834 8.181-7.046 14.693C.53 24.582.39 31.782.77 35.363c1.48 13.935 7.614 22.381 18.266 25.152 3.156.821 7.652 1.056 10.331.54 5.593-1.078 13.312-5.448 21.69-12.281 5.505-4.49 11.131-10.101 16.63-16.586l.642-.758 14.194 14.451c7.806 7.948 14.407 14.631 14.668 14.851.787.663 1.746.972 3.027.974 2.916.006 5.118-2.408 4.854-5.322-.051-.564-.26-1.352-.464-1.753-.231-.452-4.636-5.075-11.597-12.169L81.787 31.021l1.827-1.863 11.204-11.416c5.957-6.069 9.527-9.838 9.788-10.335.556-1.054.594-3.262.075-4.309-.474-.957-1.558-2.002-2.514-2.425-1.098-.485-2.969-.479-3.987.013-.818.396-4.083 3.642-20.194 20.072-5.24 5.344-9.577 9.717-9.637 9.717-.06 0-1.217-1.391-2.571-3.092-3.417-4.289-5.856-7.049-9.061-10.25C47.764 8.189 38.39 2.16 30.741.424c-2.443-.554-6.863-.576-9.703-.049m8.926 10.127c5.998 1.995 12.988 6.817 19.856 13.697 3.575 3.58 5.884 6.271 5.748 6.698-.168.53-6.642 6.783-9.46 9.136-6.098 5.094-11.717 8.777-15.986 10.477-2.307.919-3.543 1.11-5.801.894-8.224-.783-12.484-5.992-13.72-16.777-.26-2.27-.268-7.467-.014-9.644.567-4.869 2.356-8.86 5.117-11.411 1.564-1.446 3.069-2.324 5.106-2.978 3.361-1.08 6.101-1.108 9.154-.092"
          fill="#018786"/>
</svg>
