<svg width="365" height="90" viewBox="0 0 365 90" fill="none" xmlns="http://www.w3.org/2000/svg">
    <path d="M31.6866 45.3862C31.1017 24.3302 44.3462 21.1133 51.0698 21.1133C57.7934 21.1133 71.0538 28.1256 84.456 45.3862C73.1751 58.575 58.2949 69.1601 51.0698 69.1601C43.8447 69.1601 32.2715 66.4422 31.6866 45.3862Z" stroke="#018786" stroke-width="11.3166"/>
    <path d="M123.336 21.3398L99.8181 45.3632L123.336 69.3867" stroke="#018786" stroke-width="11.3166" stroke-linecap="round"/>
    <path d="M172.586 60.25L163.238 31.427H168.732L175.661 53.608H173.816L180.622 31.427H184.763L191.569 53.608H189.683L196.653 31.427H202.147L192.758 60.25H188.617L181.77 38.11H183.574L176.768 60.25H172.586ZM212.142 60.66C210.064 60.66 208.219 60.2227 206.607 59.348C204.994 58.446 203.709 57.216 202.753 55.658C201.823 54.1 201.359 52.3233 201.359 50.328C201.359 48.36 201.81 46.6107 202.712 45.08C203.641 43.522 204.898 42.292 206.484 41.39C208.069 40.4607 209.832 39.996 211.773 39.996C213.686 39.996 215.367 40.4333 216.816 41.308C218.292 42.1553 219.44 43.3307 220.26 44.834C221.107 46.31 221.531 47.991 221.531 49.877C221.531 50.2323 221.503 50.6013 221.449 50.984C221.421 51.3393 221.353 51.7493 221.244 52.214L204.598 52.255V48.237L218.743 48.196L216.57 49.877C216.515 48.7017 216.296 47.7177 215.914 46.925C215.558 46.1323 215.025 45.531 214.315 45.121C213.631 44.6837 212.784 44.465 211.773 44.465C210.707 44.465 209.777 44.711 208.985 45.203C208.192 45.6677 207.577 46.3373 207.14 47.212C206.73 48.0593 206.525 49.0707 206.525 50.246C206.525 51.4487 206.743 52.501 207.181 53.403C207.645 54.2777 208.301 54.961 209.149 55.453C209.996 55.9177 210.98 56.15 212.101 56.15C213.112 56.15 214.028 55.986 214.848 55.658C215.668 55.3027 216.378 54.7833 216.98 54.1L220.137 57.257C219.18 58.3777 218.005 59.225 216.611 59.799C215.244 60.373 213.754 60.66 212.142 60.66ZM224.852 60.25V40.447H230.264V60.25H224.852ZM227.558 37.249C226.684 37.249 225.959 36.962 225.385 36.388C224.811 35.7867 224.524 35.0487 224.524 34.174C224.524 33.3267 224.811 32.6023 225.385 32.001C225.959 31.3997 226.684 31.099 227.558 31.099C228.46 31.099 229.185 31.3997 229.731 32.001C230.305 32.6023 230.592 33.3267 230.592 34.174C230.592 35.0487 230.305 35.7867 229.731 36.388C229.185 36.962 228.46 37.249 227.558 37.249ZM235.022 60.25V30.607H240.393V60.25H235.022ZM245.152 60.25V30.607H250.523V60.25H245.152ZM255.282 60.25V40.447H260.694V60.25H255.282ZM257.988 37.249C257.113 37.249 256.389 36.962 255.815 36.388C255.241 35.7867 254.954 35.0487 254.954 34.174C254.954 33.3267 255.241 32.6023 255.815 32.001C256.389 31.3997 257.113 31.099 257.988 31.099C258.89 31.099 259.614 31.3997 260.161 32.001C260.735 32.6023 261.022 33.3267 261.022 34.174C261.022 35.0487 260.735 35.7867 260.161 36.388C259.614 36.962 258.89 37.249 257.988 37.249ZM276.44 60.66C275.019 60.66 273.734 60.373 272.586 59.799C271.438 59.1977 270.522 58.3913 269.839 57.38C269.156 56.3687 268.787 55.207 268.732 53.895V46.884C268.787 45.572 269.156 44.4103 269.839 43.399C270.55 42.3603 271.465 41.5403 272.586 40.939C273.734 40.3377 275.019 40.037 276.44 40.037C278.271 40.037 279.911 40.488 281.36 41.39C282.809 42.292 283.943 43.522 284.763 45.08C285.61 46.638 286.034 48.401 286.034 50.369C286.034 52.3097 285.61 54.059 284.763 55.617C283.943 57.175 282.809 58.405 281.36 59.307C279.911 60.209 278.271 60.66 276.44 60.66ZM275.497 55.699C276.481 55.699 277.356 55.4803 278.121 55.043C278.886 54.5783 279.474 53.9497 279.884 53.157C280.321 52.337 280.54 51.394 280.54 50.328C280.54 49.2893 280.321 48.3737 279.884 47.581C279.474 46.761 278.886 46.1323 278.121 45.695C277.356 45.2303 276.481 44.998 275.497 44.998C274.54 44.998 273.679 45.2303 272.914 45.695C272.149 46.1323 271.547 46.761 271.11 47.581C270.7 48.3737 270.495 49.2893 270.495 50.328C270.495 51.394 270.7 52.337 271.11 53.157C271.547 53.9497 272.135 54.5783 272.873 55.043C273.638 55.4803 274.513 55.699 275.497 55.699ZM265.452 68.532V40.447H270.823V45.654L269.921 50.451L270.782 55.248V68.532H265.452ZM291.986 60.25V32.206H297.357V60.25H291.986ZM287.353 45.162V40.447H301.99V45.162H287.353ZM305.011 60.25V40.447H310.423V60.25H305.011ZM307.717 37.249C306.842 37.249 306.118 36.962 305.544 36.388C304.97 35.7867 304.683 35.0487 304.683 34.174C304.683 33.3267 304.97 32.6023 305.544 32.001C306.118 31.3997 306.842 31.099 307.717 31.099C308.619 31.099 309.343 31.3997 309.89 32.001C310.464 32.6023 310.751 33.3267 310.751 34.174C310.751 35.0487 310.464 35.7867 309.89 36.388C309.343 36.962 308.619 37.249 307.717 37.249ZM324.528 60.66C322.506 60.66 320.688 60.209 319.075 59.307C317.463 58.405 316.192 57.175 315.262 55.617C314.333 54.059 313.868 52.3097 313.868 50.369C313.868 48.401 314.333 46.638 315.262 45.08C316.192 43.522 317.463 42.292 319.075 41.39C320.715 40.4607 322.533 39.996 324.528 39.996C326.086 39.996 327.521 40.283 328.833 40.857C330.145 41.431 331.28 42.251 332.236 43.317L328.792 46.802C328.273 46.228 327.644 45.7907 326.906 45.49C326.196 45.1893 325.403 45.039 324.528 45.039C323.544 45.039 322.656 45.2713 321.863 45.736C321.098 46.1733 320.483 46.7883 320.018 47.581C319.581 48.3463 319.362 49.262 319.362 50.328C319.362 51.3667 319.581 52.296 320.018 53.116C320.483 53.9087 321.098 54.5373 321.863 55.002C322.656 55.4393 323.544 55.658 324.528 55.658C325.43 55.658 326.237 55.5077 326.947 55.207C327.685 54.879 328.314 54.4143 328.833 53.813L332.318 57.298C331.307 58.3913 330.145 59.225 328.833 59.799C327.521 60.373 326.086 60.66 324.528 60.66Z" fill="#018786"/>
</svg>
