<svg width="451" height="487" viewBox="0 0 451 487" fill="none" xmlns="http://www.w3.org/2000/svg">
    <path d="M402.208 77.012H430.161V65.1999H402.208V77.012Z" stroke="#018786" stroke-width="0.75" stroke-miterlimit="10"/>
    <path d="M417.81 62.1175H445.762V50.3054H417.81V62.1175Z" stroke="#018786" stroke-width="0.75" stroke-miterlimit="10"/>
    <path d="M225.502 193.265H253.454V181.452H225.502V193.265Z" stroke="#018786" stroke-width="0.75" stroke-miterlimit="10"/>
    <path d="M241.092 178.37H269.044V166.558H241.092V178.37Z" stroke="#018786" stroke-width="0.75" stroke-miterlimit="10"/>
    <path d="M256.62 193.265H284.572V181.452H256.62V193.265Z" stroke="#018786" stroke-width="0.75" stroke-miterlimit="10"/>
    <path d="M5.24107 62.1175H33.1932V50.3054H5.24107V62.1175Z" stroke="#018786" stroke-width="0.75" stroke-miterlimit="10"/>
    <path d="M20.8427 339.866H48.7949V328.053H20.8427V339.866Z" stroke="#018786" stroke-width="0.75" stroke-miterlimit="10"/>
    <path d="M5.24107 324.971H33.1932V313.159H5.24107V324.971Z" stroke="#018786" stroke-width="0.75" stroke-miterlimit="10"/>
    <path d="M402.208 339.866H430.161V328.053H402.208V339.866Z" stroke="#018786" stroke-width="0.75" stroke-miterlimit="10"/>
    <path d="M182.032 445.953V313.307L210.248 274.788V202.659" stroke="#018786" stroke-miterlimit="10"/>
    <path d="M207.746 200.2C207.747 200.697 207.894 201.183 208.171 201.597C208.447 202.01 208.84 202.332 209.3 202.522C209.76 202.712 210.265 202.761 210.753 202.663C211.24 202.565 211.688 202.325 212.039 201.973C212.39 201.62 212.628 201.172 212.724 200.683C212.82 200.195 212.769 199.69 212.577 199.231C212.385 198.772 212.061 198.381 211.647 198.106C211.232 197.831 210.746 197.685 210.248 197.688C209.919 197.688 209.593 197.753 209.288 197.879C208.984 198.005 208.708 198.191 208.476 198.424C208.243 198.657 208.059 198.934 207.934 199.239C207.809 199.544 207.745 199.87 207.746 200.2Z" stroke="#018786" stroke-miterlimit="10"/>
    <path d="M189.305 445.953V317.962L217.521 279.443V229.049" stroke="#018786" stroke-miterlimit="10"/>
    <path d="M215.008 226.579C215.006 227.076 215.152 227.563 215.427 227.978C215.702 228.392 216.093 228.716 216.552 228.908C217.011 229.1 217.516 229.151 218.004 229.055C218.492 228.959 218.941 228.721 219.294 228.37C219.646 228.019 219.886 227.571 219.984 227.084C220.082 226.596 220.033 226.09 219.843 225.631C219.653 225.171 219.331 224.778 218.918 224.502C218.504 224.225 218.018 224.077 217.521 224.077C216.856 224.077 216.219 224.341 215.748 224.81C215.277 225.278 215.011 225.915 215.008 226.579Z" stroke="#018786" stroke-miterlimit="10"/>
    <path d="M175.033 445.953V270.291" stroke="#018786" stroke-miterlimit="10"/>
    <path d="M172.521 267.779C172.519 268.276 172.665 268.763 172.94 269.178C173.215 269.592 173.606 269.916 174.065 270.108C174.524 270.299 175.029 270.351 175.517 270.255C176.005 270.159 176.454 269.921 176.806 269.57C177.159 269.219 177.399 268.771 177.497 268.284C177.595 267.796 177.546 267.29 177.356 266.831C177.166 266.371 176.844 265.978 176.431 265.701C176.017 265.425 175.531 265.277 175.034 265.277C174.369 265.277 173.732 265.541 173.261 266.009C172.79 266.478 172.524 267.115 172.521 267.779Z" stroke="#018786" stroke-miterlimit="10"/>
    <path d="M168.288 445.953V356.671L149.14 320.548V255.766" stroke="#018786" stroke-miterlimit="10"/>
    <path d="M146.627 253.265C146.627 253.761 146.775 254.247 147.051 254.66C147.327 255.074 147.719 255.396 148.178 255.586C148.637 255.776 149.142 255.826 149.63 255.729C150.117 255.632 150.565 255.392 150.916 255.041C151.267 254.69 151.507 254.242 151.604 253.755C151.7 253.267 151.651 252.762 151.461 252.303C151.27 251.844 150.948 251.452 150.535 251.176C150.122 250.9 149.636 250.752 149.14 250.752C148.809 250.751 148.482 250.815 148.176 250.941C147.871 251.066 147.593 251.251 147.36 251.485C147.126 251.719 146.941 251.996 146.816 252.302C146.69 252.607 146.626 252.934 146.627 253.265Z" stroke="#018786" stroke-miterlimit="10"/>
    <path d="M161.585 445.953V360.534L139.006 320.59V277.934" stroke="#018786" stroke-miterlimit="10"/>
    <path d="M136.494 275.432C136.492 275.929 136.638 276.416 136.912 276.831C137.187 277.245 137.579 277.569 138.038 277.761C138.497 277.952 139.002 278.004 139.49 277.908C139.978 277.812 140.427 277.574 140.779 277.223C141.132 276.872 141.372 276.424 141.47 275.937C141.567 275.449 141.518 274.943 141.329 274.484C141.139 274.024 140.817 273.631 140.403 273.354C139.99 273.078 139.504 272.93 139.006 272.93C138.343 272.933 137.707 273.197 137.237 273.665C136.766 274.134 136.5 274.768 136.494 275.432Z" stroke="#018786" stroke-miterlimit="10"/>
    <path d="M78.4784 40.6256V0.977478" stroke="#C7C7C7" stroke-miterlimit="10"/>
    <path d="M102.978 64.2287L101.004 68.5672H55.9516L53.9881 64.2287L73.1683 50.9599H83.7981L102.978 64.2287Z" fill="#018786"/>
    <path d="M85.1281 38.1661L83.7981 50.9599H73.1682L71.8382 38.1661H85.1281Z" fill="#015150"/>
    <path d="M102.978 64.2393L101.004 68.5672H55.9516L53.9881 64.2393H102.978Z" fill="#015150"/>
    <path d="M176.501 40.6256V0.977478" stroke="#C7C7C7" stroke-miterlimit="10"/>
    <path d="M200.99 64.2287L199.016 68.5672H153.963L152 64.2287L171.18 50.9599H181.81L200.99 64.2287Z" fill="#018786"/>
    <path d="M183.141 38.1661L181.811 50.9599H171.181L169.851 38.1661H183.141Z" fill="#015150"/>
    <path d="M200.99 64.2393L199.016 68.5672H153.963L152 64.2393H200.99Z" fill="#015150"/>
    <path d="M274.513 40.6256V0.977478" stroke="#C7C7C7" stroke-miterlimit="10"/>
    <path d="M299.003 64.2287L297.04 68.5672H251.976L250.013 64.2287L269.193 50.9599H279.823L299.003 64.2287Z" fill="#018786"/>
    <path d="M281.153 38.1661L279.823 50.9599H269.193L267.863 38.1661H281.153Z" fill="#015150"/>
    <path d="M299.003 64.2393L297.029 68.5672H251.976L250.013 64.2393H299.003Z" fill="#015150"/>
    <path d="M372.525 40.6256V0.977478" stroke="#C7C7C7" stroke-miterlimit="10"/>
    <path d="M397.025 64.2287L395.051 68.5672H349.988L348.025 64.2287L367.215 50.9599H377.835L397.025 64.2287Z" fill="#018786"/>
    <path d="M379.165 38.1661L377.835 50.9599H367.215L365.875 38.1661H379.165Z" fill="#015150"/>
    <path d="M397.015 64.2393L395.051 68.5672H349.988L348.025 64.2393H397.015Z" fill="#015150"/>
    <path d="M155.611 486.973C217.647 486.973 267.937 478.944 267.937 469.039C267.937 459.134 217.647 451.104 155.611 451.104C93.5753 451.104 43.2853 459.134 43.2853 469.039C43.2853 478.944 93.5753 486.973 155.611 486.973Z" fill="#018786"/>
    <path d="M312.472 187.205H243.837V446.006H312.472V187.205Z" fill="#37474F"/>
    <path d="M438.785 187.205H312.472V446.006H438.785V187.205Z" fill="#455A64"/>
    <path d="M430.9 412.438H321.952V437.603H430.9V412.438Z" fill="#37474F"/>
    <path d="M388.549 416.597H326.533V418.718H388.549V416.597Z" fill="#455A64"/>
    <path d="M388.549 420.281H326.533V422.403H388.549V420.281Z" fill="#455A64"/>
    <path d="M388.549 423.965H326.533V426.087H388.549V423.965Z" fill="#455A64"/>
    <path d="M388.549 427.638H326.533V429.76H388.549V427.638Z" fill="#455A64"/>
    <path d="M388.549 431.322H326.533V433.444H388.549V431.322Z" fill="#455A64"/>
    <path d="M399.854 418.708C399.854 419.125 399.73 419.534 399.499 419.881C399.267 420.228 398.937 420.499 398.551 420.658C398.165 420.818 397.741 420.86 397.331 420.779C396.922 420.697 396.546 420.496 396.25 420.201C395.955 419.906 395.754 419.529 395.672 419.12C395.591 418.71 395.633 418.286 395.793 417.9C395.952 417.514 396.223 417.184 396.57 416.953C396.917 416.721 397.326 416.597 397.743 416.597C398.303 416.597 398.84 416.819 399.236 417.215C399.632 417.611 399.854 418.148 399.854 418.708Z" fill="#86C6C5"/>
    <path d="M406.8 418.708C406.8 419.125 406.676 419.534 406.444 419.881C406.212 420.228 405.882 420.499 405.497 420.658C405.111 420.818 404.686 420.86 404.277 420.779C403.867 420.697 403.491 420.496 403.196 420.201C402.901 419.906 402.7 419.529 402.618 419.12C402.537 418.71 402.579 418.286 402.738 417.9C402.898 417.514 403.169 417.184 403.516 416.953C403.863 416.721 404.271 416.597 404.689 416.597C405.249 416.597 405.786 416.819 406.182 417.215C406.578 417.611 406.8 418.148 406.8 418.708Z" fill="#86C6C5"/>
    <path d="M413.746 418.708C413.746 419.125 413.623 419.534 413.391 419.881C413.159 420.228 412.829 420.499 412.443 420.658C412.057 420.818 411.633 420.86 411.223 420.779C410.814 420.697 410.438 420.496 410.142 420.201C409.847 419.906 409.646 419.529 409.565 419.12C409.483 418.71 409.525 418.286 409.685 417.9C409.845 417.514 410.115 417.184 410.462 416.953C410.81 416.721 411.218 416.597 411.635 416.597C412.195 416.597 412.732 416.819 413.128 417.215C413.524 417.611 413.746 418.148 413.746 418.708Z" fill="#86C6C5"/>
    <path d="M420.681 418.708C420.681 419.125 420.557 419.534 420.325 419.881C420.093 420.228 419.764 420.499 419.378 420.658C418.992 420.818 418.568 420.86 418.158 420.779C417.749 420.697 417.372 420.496 417.077 420.201C416.782 419.906 416.581 419.529 416.499 419.12C416.418 418.71 416.46 418.286 416.619 417.9C416.779 417.514 417.05 417.184 417.397 416.953C417.744 416.721 418.152 416.597 418.57 416.597C419.13 416.597 419.667 416.819 420.063 417.215C420.459 417.611 420.681 418.148 420.681 418.708Z" fill="#86C6C5"/>
    <path d="M427.627 418.708C427.627 419.125 427.503 419.534 427.271 419.881C427.039 420.228 426.709 420.499 426.324 420.658C425.938 420.818 425.513 420.86 425.104 420.779C424.694 420.697 424.318 420.496 424.023 420.201C423.728 419.906 423.526 419.529 423.445 419.12C423.364 418.71 423.405 418.286 423.565 417.9C423.725 417.514 423.996 417.184 424.343 416.953C424.69 416.721 425.098 416.597 425.516 416.597C426.076 416.597 426.613 416.819 427.008 417.215C427.404 417.611 427.627 418.148 427.627 418.708Z" fill="#86C6C5"/>
    <path d="M399.854 425.02C399.854 425.438 399.73 425.846 399.499 426.193C399.267 426.54 398.937 426.811 398.551 426.971C398.165 427.131 397.741 427.172 397.331 427.091C396.922 427.01 396.546 426.808 396.25 426.513C395.955 426.218 395.754 425.842 395.672 425.432C395.591 425.023 395.633 424.598 395.793 424.212C395.952 423.827 396.223 423.497 396.57 423.265C396.917 423.033 397.326 422.909 397.743 422.909C398.303 422.909 398.84 423.132 399.236 423.528C399.632 423.923 399.854 424.46 399.854 425.02Z" fill="#86C6C5"/>
    <path d="M406.8 425.02C406.8 425.438 406.676 425.846 406.444 426.193C406.212 426.54 405.882 426.811 405.497 426.971C405.111 427.131 404.686 427.172 404.277 427.091C403.867 427.01 403.491 426.808 403.196 426.513C402.901 426.218 402.7 425.842 402.618 425.432C402.537 425.023 402.579 424.598 402.738 424.212C402.898 423.827 403.169 423.497 403.516 423.265C403.863 423.033 404.271 422.909 404.689 422.909C405.249 422.909 405.786 423.132 406.182 423.528C406.578 423.923 406.8 424.46 406.8 425.02Z" fill="#86C6C5"/>
    <path d="M413.746 425.02C413.746 425.438 413.623 425.846 413.391 426.193C413.159 426.54 412.829 426.811 412.443 426.971C412.057 427.131 411.633 427.172 411.223 427.091C410.814 427.01 410.438 426.808 410.142 426.513C409.847 426.218 409.646 425.842 409.565 425.432C409.483 425.023 409.525 424.598 409.685 424.212C409.845 423.827 410.115 423.497 410.462 423.265C410.81 423.033 411.218 422.909 411.635 422.909C412.195 422.909 412.732 423.132 413.128 423.528C413.524 423.923 413.746 424.46 413.746 425.02Z" fill="#86C6C5"/>
    <path d="M420.681 425.02C420.681 425.438 420.557 425.846 420.325 426.193C420.093 426.54 419.764 426.811 419.378 426.971C418.992 427.131 418.568 427.172 418.158 427.091C417.749 427.01 417.372 426.808 417.077 426.513C416.782 426.218 416.581 425.842 416.499 425.432C416.418 425.023 416.46 424.598 416.619 424.212C416.779 423.827 417.05 423.497 417.397 423.265C417.744 423.033 418.152 422.909 418.57 422.909C419.13 422.909 419.667 423.132 420.063 423.528C420.459 423.923 420.681 424.46 420.681 425.02Z" fill="#86C6C5"/>
    <path d="M427.627 425.02C427.627 425.438 427.503 425.846 427.271 426.193C427.039 426.54 426.709 426.811 426.324 426.971C425.938 427.131 425.513 427.172 425.104 427.091C424.694 427.01 424.318 426.808 424.023 426.513C423.728 426.218 423.526 425.842 423.445 425.432C423.364 425.023 423.405 424.598 423.565 424.212C423.725 423.827 423.996 423.497 424.343 423.265C424.69 423.033 425.098 422.909 425.516 422.909C426.076 422.909 426.613 423.132 427.008 423.528C427.404 423.923 427.627 424.46 427.627 425.02Z" fill="#86C6C5"/>
    <path d="M397.754 433.455C398.92 433.455 399.865 432.509 399.865 431.343C399.865 430.177 398.92 429.232 397.754 429.232C396.588 429.232 395.643 430.177 395.643 431.343C395.643 432.509 396.588 433.455 397.754 433.455Z" fill="#86C6C5"/>
    <path d="M406.8 431.343C406.8 431.761 406.676 432.169 406.444 432.516C406.212 432.863 405.882 433.134 405.497 433.294C405.111 433.454 404.686 433.495 404.277 433.414C403.867 433.333 403.491 433.131 403.196 432.836C402.901 432.541 402.7 432.165 402.618 431.755C402.537 431.346 402.579 430.921 402.738 430.535C402.898 430.15 403.169 429.82 403.516 429.588C403.863 429.356 404.271 429.232 404.689 429.232C405.249 429.232 405.786 429.455 406.182 429.851C406.578 430.246 406.8 430.783 406.8 431.343Z" fill="#86C6C5"/>
    <path d="M411.635 433.455C412.801 433.455 413.746 432.509 413.746 431.343C413.746 430.177 412.801 429.232 411.635 429.232C410.469 429.232 409.524 430.177 409.524 431.343C409.524 432.509 410.469 433.455 411.635 433.455Z" fill="#86C6C5"/>
    <path d="M420.681 431.343C420.681 431.761 420.557 432.169 420.325 432.516C420.093 432.863 419.764 433.134 419.378 433.294C418.992 433.454 418.568 433.495 418.158 433.414C417.749 433.333 417.372 433.131 417.077 432.836C416.782 432.541 416.581 432.165 416.499 431.755C416.418 431.346 416.46 430.921 416.619 430.535C416.779 430.15 417.05 429.82 417.397 429.588C417.744 429.356 418.152 429.232 418.57 429.232C419.13 429.232 419.667 429.455 420.063 429.851C420.459 430.246 420.681 430.783 420.681 431.343Z" fill="#86C6C5"/>
    <path d="M427.627 431.343C427.627 431.761 427.503 432.169 427.271 432.516C427.039 432.863 426.709 433.134 426.324 433.294C425.938 433.454 425.513 433.495 425.104 433.414C424.694 433.333 424.318 433.131 424.023 432.836C423.728 432.541 423.526 432.165 423.445 431.755C423.364 431.346 423.405 430.921 423.565 430.535C423.725 430.15 423.996 429.82 424.343 429.588C424.69 429.356 425.098 429.232 425.516 429.232C426.076 429.232 426.613 429.455 427.008 429.851C427.404 430.246 427.627 430.783 427.627 431.343Z" fill="#86C6C5"/>
    <path d="M392.866 416.597H391.652V433.444H392.866V416.597Z" fill="#263238"/>
    <path d="M430.9 382.121H321.952V407.286H430.9V382.121Z" fill="#37474F"/>
    <path d="M388.549 386.269H326.533V388.391H388.549V386.269Z" fill="#455A64"/>
    <path d="M388.549 389.953H326.533V392.075H388.549V389.953Z" fill="#455A64"/>
    <path d="M388.549 393.638H326.533V395.759H388.549V393.638Z" fill="#455A64"/>
    <path d="M388.549 397.322H326.533V399.443H388.549V397.322Z" fill="#455A64"/>
    <path d="M388.549 400.995H326.533V403.117H388.549V400.995Z" fill="#455A64"/>
    <path d="M399.854 388.381C399.854 388.798 399.73 389.206 399.499 389.554C399.267 389.901 398.937 390.171 398.551 390.331C398.165 390.491 397.741 390.533 397.331 390.451C396.922 390.37 396.546 390.169 396.25 389.873C395.955 389.578 395.754 389.202 395.672 388.793C395.591 388.383 395.633 387.958 395.793 387.573C395.952 387.187 396.223 386.857 396.57 386.625C396.917 386.393 397.326 386.269 397.743 386.269C398.303 386.269 398.84 386.492 399.236 386.888C399.632 387.284 399.854 387.821 399.854 388.381Z" fill="#86C6C5"/>
    <path d="M406.8 388.381C406.8 388.798 406.676 389.206 406.444 389.554C406.212 389.901 405.882 390.171 405.497 390.331C405.111 390.491 404.686 390.533 404.277 390.451C403.867 390.37 403.491 390.169 403.196 389.873C402.901 389.578 402.7 389.202 402.618 388.793C402.537 388.383 402.579 387.958 402.738 387.573C402.898 387.187 403.169 386.857 403.516 386.625C403.863 386.393 404.271 386.269 404.689 386.269C405.249 386.269 405.786 386.492 406.182 386.888C406.578 387.284 406.8 387.821 406.8 388.381Z" fill="#86C6C5"/>
    <path d="M413.746 388.381C413.746 388.798 413.623 389.206 413.391 389.554C413.159 389.901 412.829 390.171 412.443 390.331C412.057 390.491 411.633 390.533 411.223 390.451C410.814 390.37 410.438 390.169 410.142 389.873C409.847 389.578 409.646 389.202 409.565 388.793C409.483 388.383 409.525 387.958 409.685 387.573C409.845 387.187 410.115 386.857 410.462 386.625C410.81 386.393 411.218 386.269 411.635 386.269C412.195 386.269 412.732 386.492 413.128 386.888C413.524 387.284 413.746 387.821 413.746 388.381Z" fill="#86C6C5"/>
    <path d="M420.681 388.381C420.681 388.798 420.557 389.206 420.325 389.554C420.093 389.901 419.764 390.171 419.378 390.331C418.992 390.491 418.568 390.533 418.158 390.451C417.749 390.37 417.372 390.169 417.077 389.873C416.782 389.578 416.581 389.202 416.499 388.793C416.418 388.383 416.46 387.958 416.619 387.573C416.779 387.187 417.05 386.857 417.397 386.625C417.744 386.393 418.152 386.269 418.57 386.269C419.13 386.269 419.667 386.492 420.063 386.888C420.459 387.284 420.681 387.821 420.681 388.381Z" fill="#86C6C5"/>
    <path d="M427.627 388.381C427.627 388.798 427.503 389.206 427.271 389.554C427.039 389.901 426.709 390.171 426.324 390.331C425.938 390.491 425.513 390.533 425.104 390.451C424.694 390.37 424.318 390.169 424.023 389.873C423.728 389.578 423.526 389.202 423.445 388.793C423.364 388.383 423.405 387.958 423.565 387.573C423.725 387.187 423.996 386.857 424.343 386.625C424.69 386.393 425.098 386.269 425.516 386.269C426.076 386.269 426.613 386.492 427.008 386.888C427.404 387.284 427.627 387.821 427.627 388.381Z" fill="#86C6C5"/>
    <path d="M399.854 394.714C399.854 395.132 399.73 395.54 399.499 395.887C399.267 396.234 398.937 396.505 398.551 396.665C398.165 396.825 397.741 396.866 397.331 396.785C396.922 396.703 396.546 396.502 396.25 396.207C395.955 395.912 395.754 395.536 395.672 395.126C395.591 394.717 395.633 394.292 395.793 393.906C395.952 393.521 396.223 393.191 396.57 392.959C396.917 392.727 397.326 392.603 397.743 392.603C398.303 392.603 398.84 392.825 399.236 393.221C399.632 393.617 399.854 394.154 399.854 394.714Z" fill="#86C6C5"/>
    <path d="M406.8 394.714C406.8 395.132 406.676 395.54 406.444 395.887C406.212 396.234 405.882 396.505 405.497 396.665C405.111 396.825 404.686 396.866 404.277 396.785C403.867 396.703 403.491 396.502 403.196 396.207C402.901 395.912 402.7 395.536 402.618 395.126C402.537 394.717 402.579 394.292 402.738 393.906C402.898 393.521 403.169 393.191 403.516 392.959C403.863 392.727 404.271 392.603 404.689 392.603C405.249 392.603 405.786 392.825 406.182 393.221C406.578 393.617 406.8 394.154 406.8 394.714Z" fill="#86C6C5"/>
    <path d="M413.746 394.714C413.746 395.132 413.623 395.54 413.391 395.887C413.159 396.234 412.829 396.505 412.443 396.665C412.057 396.825 411.633 396.866 411.223 396.785C410.814 396.703 410.438 396.502 410.142 396.207C409.847 395.912 409.646 395.536 409.565 395.126C409.483 394.717 409.525 394.292 409.685 393.906C409.845 393.521 410.115 393.191 410.462 392.959C410.81 392.727 411.218 392.603 411.635 392.603C412.195 392.603 412.732 392.825 413.128 393.221C413.524 393.617 413.746 394.154 413.746 394.714Z" fill="#86C6C5"/>
    <path d="M420.681 394.714C420.681 395.132 420.557 395.54 420.325 395.887C420.093 396.234 419.764 396.505 419.378 396.665C418.992 396.825 418.568 396.866 418.158 396.785C417.749 396.703 417.372 396.502 417.077 396.207C416.782 395.912 416.581 395.536 416.499 395.126C416.418 394.717 416.46 394.292 416.619 393.906C416.779 393.521 417.05 393.191 417.397 392.959C417.744 392.727 418.152 392.603 418.57 392.603C419.13 392.603 419.667 392.825 420.063 393.221C420.459 393.617 420.681 394.154 420.681 394.714Z" fill="#86C6C5"/>
    <path d="M427.627 394.714C427.627 395.132 427.503 395.54 427.271 395.887C427.039 396.234 426.709 396.505 426.324 396.665C425.938 396.825 425.513 396.866 425.104 396.785C424.694 396.703 424.318 396.502 424.023 396.207C423.728 395.912 423.526 395.536 423.445 395.126C423.364 394.717 423.405 394.292 423.565 393.906C423.725 393.521 423.996 393.191 424.343 392.959C424.69 392.727 425.098 392.603 425.516 392.603C426.076 392.603 426.613 392.825 427.008 393.221C427.404 393.617 427.627 394.154 427.627 394.714Z" fill="#86C6C5"/>
    <path d="M399.854 401.048C399.854 401.465 399.73 401.874 399.499 402.221C399.267 402.568 398.937 402.839 398.551 402.998C398.165 403.158 397.741 403.2 397.331 403.118C396.922 403.037 396.546 402.836 396.25 402.541C395.955 402.245 395.754 401.869 395.672 401.46C395.591 401.05 395.633 400.626 395.793 400.24C395.952 399.854 396.223 399.524 396.57 399.292C396.917 399.06 397.326 398.937 397.743 398.937C398.303 398.937 398.84 399.159 399.236 399.555C399.632 399.951 399.854 400.488 399.854 401.048Z" fill="#86C6C5"/>
    <path d="M406.8 401.048C406.8 401.465 406.676 401.874 406.444 402.221C406.212 402.568 405.882 402.839 405.497 402.998C405.111 403.158 404.686 403.2 404.277 403.118C403.867 403.037 403.491 402.836 403.196 402.541C402.901 402.245 402.7 401.869 402.618 401.46C402.537 401.05 402.579 400.626 402.738 400.24C402.898 399.854 403.169 399.524 403.516 399.292C403.863 399.06 404.271 398.937 404.689 398.937C405.249 398.937 405.786 399.159 406.182 399.555C406.578 399.951 406.8 400.488 406.8 401.048Z" fill="#86C6C5"/>
    <path d="M413.746 401.048C413.746 401.465 413.623 401.874 413.391 402.221C413.159 402.568 412.829 402.839 412.443 402.998C412.057 403.158 411.633 403.2 411.223 403.118C410.814 403.037 410.438 402.836 410.142 402.541C409.847 402.245 409.646 401.869 409.565 401.46C409.483 401.05 409.525 400.626 409.685 400.24C409.845 399.854 410.115 399.524 410.462 399.292C410.81 399.06 411.218 398.937 411.635 398.937C412.195 398.937 412.732 399.159 413.128 399.555C413.524 399.951 413.746 400.488 413.746 401.048Z" fill="#86C6C5"/>
    <path d="M420.681 401.048C420.681 401.465 420.557 401.874 420.325 402.221C420.093 402.568 419.764 402.839 419.378 402.998C418.992 403.158 418.568 403.2 418.158 403.118C417.749 403.037 417.372 402.836 417.077 402.541C416.782 402.245 416.581 401.869 416.499 401.46C416.418 401.05 416.46 400.626 416.619 400.24C416.779 399.854 417.05 399.524 417.397 399.292C417.744 399.06 418.152 398.937 418.57 398.937C419.13 398.937 419.667 399.159 420.063 399.555C420.459 399.951 420.681 400.488 420.681 401.048Z" fill="#86C6C5"/>
    <path d="M427.627 401.048C427.627 401.465 427.503 401.874 427.271 402.221C427.039 402.568 426.709 402.839 426.324 402.998C425.938 403.158 425.513 403.2 425.104 403.118C424.694 403.037 424.318 402.836 424.023 402.541C423.728 402.245 423.526 401.869 423.445 401.46C423.364 401.05 423.405 400.626 423.565 400.24C423.725 399.854 423.996 399.524 424.343 399.292C424.69 399.06 425.098 398.937 425.516 398.937C426.076 398.937 426.613 399.159 427.008 399.555C427.404 399.951 427.627 400.488 427.627 401.048Z" fill="#86C6C5"/>
    <path d="M392.866 386.269H391.652V403.117H392.866V386.269Z" fill="#263238"/>
    <path d="M430.9 351.794H321.952V376.959H430.9V351.794Z" fill="#37474F"/>
    <path d="M388.549 355.953H326.533V358.075H388.549V355.953Z" fill="#455A64"/>
    <path d="M388.549 359.626H326.533V361.748H388.549V359.626Z" fill="#455A64"/>
    <path d="M388.549 363.31H326.533V365.432H388.549V363.31Z" fill="#455A64"/>
    <path d="M388.549 366.994H326.533V369.116H388.549V366.994Z" fill="#455A64"/>
    <path d="M388.549 370.678H326.533V372.8H388.549V370.678Z" fill="#455A64"/>
    <path d="M397.754 360.165C398.92 360.165 399.865 359.219 399.865 358.053C399.865 356.887 398.92 355.942 397.754 355.942C396.588 355.942 395.643 356.887 395.643 358.053C395.643 359.219 396.588 360.165 397.754 360.165Z" fill="#86C6C5"/>
    <path d="M406.8 358.053C406.8 358.471 406.676 358.879 406.444 359.226C406.212 359.574 405.882 359.844 405.497 360.004C405.111 360.164 404.686 360.206 404.277 360.124C403.867 360.043 403.491 359.842 403.196 359.546C402.901 359.251 402.7 358.875 402.618 358.465C402.537 358.056 402.579 357.631 402.738 357.246C402.898 356.86 403.169 356.53 403.516 356.298C403.863 356.066 404.271 355.942 404.689 355.942C405.249 355.942 405.786 356.165 406.182 356.561C406.578 356.957 406.8 357.494 406.8 358.053Z" fill="#86C6C5"/>
    <path d="M411.635 360.165C412.801 360.165 413.746 359.219 413.746 358.053C413.746 356.887 412.801 355.942 411.635 355.942C410.469 355.942 409.524 356.887 409.524 358.053C409.524 359.219 410.469 360.165 411.635 360.165Z" fill="#86C6C5"/>
    <path d="M420.681 358.053C420.681 358.471 420.557 358.879 420.325 359.226C420.093 359.574 419.764 359.844 419.378 360.004C418.992 360.164 418.568 360.206 418.158 360.124C417.749 360.043 417.372 359.842 417.077 359.546C416.782 359.251 416.581 358.875 416.499 358.465C416.418 358.056 416.46 357.631 416.619 357.246C416.779 356.86 417.05 356.53 417.397 356.298C417.744 356.066 418.152 355.942 418.57 355.942C419.13 355.942 419.667 356.165 420.063 356.561C420.459 356.957 420.681 357.494 420.681 358.053Z" fill="#86C6C5"/>
    <path d="M427.627 358.053C427.627 358.471 427.503 358.879 427.271 359.226C427.039 359.574 426.709 359.844 426.324 360.004C425.938 360.164 425.513 360.206 425.104 360.124C424.694 360.043 424.318 359.842 424.023 359.546C423.728 359.251 423.526 358.875 423.445 358.465C423.364 358.056 423.405 357.631 423.565 357.246C423.725 356.86 423.996 356.53 424.343 356.298C424.69 356.066 425.098 355.942 425.516 355.942C426.076 355.942 426.613 356.165 427.008 356.561C427.404 356.957 427.627 357.494 427.627 358.053Z" fill="#86C6C5"/>
    <path d="M399.854 364.376C399.854 364.794 399.73 365.202 399.499 365.549C399.267 365.897 398.937 366.167 398.551 366.327C398.165 366.487 397.741 366.529 397.331 366.447C396.922 366.366 396.546 366.165 396.25 365.869C395.955 365.574 395.754 365.198 395.672 364.788C395.591 364.379 395.633 363.954 395.793 363.569C395.952 363.183 396.223 362.853 396.57 362.621C396.917 362.389 397.326 362.265 397.743 362.265C398.303 362.265 398.84 362.488 399.236 362.884C399.632 363.28 399.854 363.817 399.854 364.376Z" fill="#86C6C5"/>
    <path d="M406.8 364.376C406.8 364.794 406.676 365.202 406.444 365.549C406.212 365.897 405.882 366.167 405.497 366.327C405.111 366.487 404.686 366.529 404.277 366.447C403.867 366.366 403.491 366.165 403.196 365.869C402.901 365.574 402.7 365.198 402.618 364.788C402.537 364.379 402.579 363.954 402.738 363.569C402.898 363.183 403.169 362.853 403.516 362.621C403.863 362.389 404.271 362.265 404.689 362.265C405.249 362.265 405.786 362.488 406.182 362.884C406.578 363.28 406.8 363.817 406.8 364.376Z" fill="#86C6C5"/>
    <path d="M413.746 364.376C413.746 364.794 413.623 365.202 413.391 365.549C413.159 365.897 412.829 366.167 412.443 366.327C412.057 366.487 411.633 366.529 411.223 366.447C410.814 366.366 410.438 366.165 410.142 365.869C409.847 365.574 409.646 365.198 409.565 364.788C409.483 364.379 409.525 363.954 409.685 363.569C409.845 363.183 410.115 362.853 410.462 362.621C410.81 362.389 411.218 362.265 411.635 362.265C412.195 362.265 412.732 362.488 413.128 362.884C413.524 363.28 413.746 363.817 413.746 364.376Z" fill="#86C6C5"/>
    <path d="M420.681 364.376C420.681 364.794 420.557 365.202 420.325 365.549C420.093 365.897 419.764 366.167 419.378 366.327C418.992 366.487 418.568 366.529 418.158 366.447C417.749 366.366 417.372 366.165 417.077 365.869C416.782 365.574 416.581 365.198 416.499 364.788C416.418 364.379 416.46 363.954 416.619 363.569C416.779 363.183 417.05 362.853 417.397 362.621C417.744 362.389 418.152 362.265 418.57 362.265C419.13 362.265 419.667 362.488 420.063 362.884C420.459 363.28 420.681 363.817 420.681 364.376Z" fill="#86C6C5"/>
    <path d="M427.627 364.376C427.627 364.794 427.503 365.202 427.271 365.549C427.039 365.897 426.709 366.167 426.324 366.327C425.938 366.487 425.513 366.529 425.104 366.447C424.694 366.366 424.318 366.165 424.023 365.869C423.728 365.574 423.526 365.198 423.445 364.788C423.364 364.379 423.405 363.954 423.565 363.569C423.725 363.183 423.996 362.853 424.343 362.621C424.69 362.389 425.098 362.265 425.516 362.265C426.076 362.265 426.613 362.488 427.008 362.884C427.404 363.28 427.627 363.817 427.627 364.376Z" fill="#86C6C5"/>
    <path d="M399.854 370.689C399.854 371.106 399.73 371.515 399.499 371.862C399.267 372.209 398.937 372.48 398.551 372.639C398.165 372.799 397.741 372.841 397.331 372.76C396.922 372.678 396.546 372.477 396.25 372.182C395.955 371.886 395.754 371.51 395.672 371.101C395.591 370.691 395.633 370.267 395.793 369.881C395.952 369.495 396.223 369.165 396.57 368.934C396.917 368.702 397.326 368.578 397.743 368.578C398.303 368.578 398.84 368.8 399.236 369.196C399.632 369.592 399.854 370.129 399.854 370.689Z" fill="#86C6C5"/>
    <path d="M406.8 370.689C406.8 371.106 406.676 371.515 406.444 371.862C406.212 372.209 405.882 372.48 405.497 372.639C405.111 372.799 404.686 372.841 404.277 372.76C403.867 372.678 403.491 372.477 403.196 372.182C402.901 371.886 402.7 371.51 402.618 371.101C402.537 370.691 402.579 370.267 402.738 369.881C402.898 369.495 403.169 369.165 403.516 368.934C403.863 368.702 404.271 368.578 404.689 368.578C405.249 368.578 405.786 368.8 406.182 369.196C406.578 369.592 406.8 370.129 406.8 370.689Z" fill="#86C6C5"/>
    <path d="M413.746 370.689C413.746 371.106 413.623 371.515 413.391 371.862C413.159 372.209 412.829 372.48 412.443 372.639C412.057 372.799 411.633 372.841 411.223 372.76C410.814 372.678 410.438 372.477 410.142 372.182C409.847 371.886 409.646 371.51 409.565 371.101C409.483 370.691 409.525 370.267 409.685 369.881C409.845 369.495 410.115 369.165 410.462 368.934C410.81 368.702 411.218 368.578 411.635 368.578C412.195 368.578 412.732 368.8 413.128 369.196C413.524 369.592 413.746 370.129 413.746 370.689Z" fill="#86C6C5"/>
    <path d="M420.681 370.689C420.681 371.106 420.557 371.515 420.325 371.862C420.093 372.209 419.764 372.48 419.378 372.639C418.992 372.799 418.568 372.841 418.158 372.76C417.749 372.678 417.372 372.477 417.077 372.182C416.782 371.886 416.581 371.51 416.499 371.101C416.418 370.691 416.46 370.267 416.619 369.881C416.779 369.495 417.05 369.165 417.397 368.934C417.744 368.702 418.152 368.578 418.57 368.578C419.13 368.578 419.667 368.8 420.063 369.196C420.459 369.592 420.681 370.129 420.681 370.689Z" fill="#86C6C5"/>
    <path d="M427.627 370.689C427.627 371.106 427.503 371.515 427.271 371.862C427.039 372.209 426.709 372.48 426.324 372.639C425.938 372.799 425.513 372.841 425.104 372.76C424.694 372.678 424.318 372.477 424.023 372.182C423.728 371.886 423.526 371.51 423.445 371.101C423.364 370.691 423.405 370.267 423.565 369.881C423.725 369.495 423.996 369.165 424.343 368.934C424.69 368.702 425.098 368.578 425.516 368.578C426.076 368.578 426.613 368.8 427.008 369.196C427.404 369.592 427.627 370.129 427.627 370.689Z" fill="#86C6C5"/>
    <path d="M392.866 355.953H391.652V372.8H392.866V355.953Z" fill="#263238"/>
    <path d="M430.9 321.467H321.952V346.632H430.9V321.467Z" fill="#37474F"/>
    <path d="M388.549 325.626H326.533V327.747H388.549V325.626Z" fill="#455A64"/>
    <path d="M388.549 329.299H326.533V331.421H388.549V329.299Z" fill="#455A64"/>
    <path d="M388.549 332.983H326.533V335.105H388.549V332.983Z" fill="#455A64"/>
    <path d="M388.549 336.667H326.533V338.789H388.549V336.667Z" fill="#455A64"/>
    <path d="M388.549 340.351H326.533V342.473H388.549V340.351Z" fill="#455A64"/>
    <path d="M399.854 327.726C399.854 328.144 399.73 328.552 399.499 328.899C399.267 329.246 398.937 329.517 398.551 329.677C398.165 329.837 397.741 329.878 397.331 329.797C396.922 329.715 396.546 329.514 396.25 329.219C395.955 328.924 395.754 328.548 395.672 328.138C395.591 327.729 395.633 327.304 395.793 326.918C395.952 326.533 396.223 326.203 396.57 325.971C396.917 325.739 397.326 325.615 397.743 325.615C398.303 325.615 398.84 325.837 399.236 326.233C399.632 326.629 399.854 327.166 399.854 327.726Z" fill="#86C6C5"/>
    <path d="M406.8 327.726C406.8 328.144 406.676 328.552 406.444 328.899C406.212 329.246 405.882 329.517 405.497 329.677C405.111 329.837 404.686 329.878 404.277 329.797C403.867 329.715 403.491 329.514 403.196 329.219C402.901 328.924 402.7 328.548 402.618 328.138C402.537 327.729 402.579 327.304 402.738 326.918C402.898 326.533 403.169 326.203 403.516 325.971C403.863 325.739 404.271 325.615 404.689 325.615C405.249 325.615 405.786 325.837 406.182 326.233C406.578 326.629 406.8 327.166 406.8 327.726Z" fill="#86C6C5"/>
    <path d="M413.746 327.726C413.746 328.144 413.623 328.552 413.391 328.899C413.159 329.246 412.829 329.517 412.443 329.677C412.057 329.837 411.633 329.878 411.223 329.797C410.814 329.715 410.438 329.514 410.142 329.219C409.847 328.924 409.646 328.548 409.565 328.138C409.483 327.729 409.525 327.304 409.685 326.918C409.845 326.533 410.115 326.203 410.462 325.971C410.81 325.739 411.218 325.615 411.635 325.615C412.195 325.615 412.732 325.837 413.128 326.233C413.524 326.629 413.746 327.166 413.746 327.726Z" fill="#86C6C5"/>
    <path d="M420.681 327.726C420.681 328.144 420.557 328.552 420.325 328.899C420.093 329.246 419.764 329.517 419.378 329.677C418.992 329.837 418.568 329.878 418.158 329.797C417.749 329.715 417.372 329.514 417.077 329.219C416.782 328.924 416.581 328.548 416.499 328.138C416.418 327.729 416.46 327.304 416.619 326.918C416.779 326.533 417.05 326.203 417.397 325.971C417.744 325.739 418.152 325.615 418.57 325.615C419.13 325.615 419.667 325.837 420.063 326.233C420.459 326.629 420.681 327.166 420.681 327.726Z" fill="#86C6C5"/>
    <path d="M427.627 327.726C427.627 328.144 427.503 328.552 427.271 328.899C427.039 329.246 426.709 329.517 426.324 329.677C425.938 329.837 425.513 329.878 425.104 329.797C424.694 329.715 424.318 329.514 424.023 329.219C423.728 328.924 423.526 328.548 423.445 328.138C423.364 327.729 423.405 327.304 423.565 326.918C423.725 326.533 423.996 326.203 424.343 325.971C424.69 325.739 425.098 325.615 425.516 325.615C426.076 325.615 426.613 325.837 427.008 326.233C427.404 326.629 427.627 327.166 427.627 327.726Z" fill="#86C6C5"/>
    <path d="M397.754 336.16C398.92 336.16 399.865 335.215 399.865 334.049C399.865 332.883 398.92 331.938 397.754 331.938C396.588 331.938 395.643 332.883 395.643 334.049C395.643 335.215 396.588 336.16 397.754 336.16Z" fill="#86C6C5"/>
    <path d="M406.8 334.049C406.8 334.467 406.676 334.875 406.444 335.222C406.212 335.569 405.882 335.84 405.497 336C405.111 336.16 404.686 336.201 404.277 336.12C403.867 336.038 403.491 335.837 403.196 335.542C402.901 335.247 402.7 334.871 402.618 334.461C402.537 334.052 402.579 333.627 402.738 333.241C402.898 332.856 403.169 332.526 403.516 332.294C403.863 332.062 404.271 331.938 404.689 331.938C405.249 331.938 405.786 332.16 406.182 332.556C406.578 332.952 406.8 333.489 406.8 334.049Z" fill="#86C6C5"/>
    <path d="M411.635 336.16C412.801 336.16 413.746 335.215 413.746 334.049C413.746 332.883 412.801 331.938 411.635 331.938C410.469 331.938 409.524 332.883 409.524 334.049C409.524 335.215 410.469 336.16 411.635 336.16Z" fill="#86C6C5"/>
    <path d="M420.681 334.049C420.681 334.467 420.557 334.875 420.325 335.222C420.093 335.569 419.764 335.84 419.378 336C418.992 336.16 418.568 336.201 418.158 336.12C417.749 336.038 417.372 335.837 417.077 335.542C416.782 335.247 416.581 334.871 416.499 334.461C416.418 334.052 416.46 333.627 416.619 333.241C416.779 332.856 417.05 332.526 417.397 332.294C417.744 332.062 418.152 331.938 418.57 331.938C419.13 331.938 419.667 332.16 420.063 332.556C420.459 332.952 420.681 333.489 420.681 334.049Z" fill="#86C6C5"/>
    <path d="M427.627 334.049C427.627 334.467 427.503 334.875 427.271 335.222C427.039 335.569 426.709 335.84 426.324 336C425.938 336.16 425.513 336.201 425.104 336.12C424.694 336.038 424.318 335.837 424.023 335.542C423.728 335.247 423.526 334.871 423.445 334.461C423.364 334.052 423.405 333.627 423.565 333.241C423.725 332.856 423.996 332.526 424.343 332.294C424.69 332.062 425.098 331.938 425.516 331.938C426.076 331.938 426.613 332.16 427.008 332.556C427.404 332.952 427.627 333.489 427.627 334.049Z" fill="#86C6C5"/>
    <path d="M397.754 342.473C398.92 342.473 399.865 341.528 399.865 340.362C399.865 339.196 398.92 338.25 397.754 338.25C396.588 338.25 395.643 339.196 395.643 340.362C395.643 341.528 396.588 342.473 397.754 342.473Z" fill="#86C6C5"/>
    <path d="M406.8 340.362C406.8 340.779 406.676 341.187 406.444 341.535C406.212 341.882 405.882 342.152 405.497 342.312C405.111 342.472 404.686 342.514 404.277 342.432C403.867 342.351 403.491 342.15 403.196 341.855C402.901 341.559 402.7 341.183 402.618 340.774C402.537 340.364 402.579 339.94 402.738 339.554C402.898 339.168 403.169 338.838 403.516 338.606C403.863 338.374 404.271 338.25 404.689 338.25C405.249 338.25 405.786 338.473 406.182 338.869C406.578 339.265 406.8 339.802 406.8 340.362Z" fill="#86C6C5"/>
    <path d="M411.635 342.473C412.801 342.473 413.746 341.528 413.746 340.362C413.746 339.196 412.801 338.25 411.635 338.25C410.469 338.25 409.524 339.196 409.524 340.362C409.524 341.528 410.469 342.473 411.635 342.473Z" fill="#86C6C5"/>
    <path d="M420.681 340.362C420.681 340.779 420.557 341.187 420.325 341.535C420.093 341.882 419.764 342.152 419.378 342.312C418.992 342.472 418.568 342.514 418.158 342.432C417.749 342.351 417.372 342.15 417.077 341.855C416.782 341.559 416.581 341.183 416.499 340.774C416.418 340.364 416.46 339.94 416.619 339.554C416.779 339.168 417.05 338.838 417.397 338.606C417.744 338.374 418.152 338.25 418.57 338.25C419.13 338.25 419.667 338.473 420.063 338.869C420.459 339.265 420.681 339.802 420.681 340.362Z" fill="#86C6C5"/>
    <path d="M427.627 340.362C427.627 340.779 427.503 341.187 427.271 341.535C427.039 341.882 426.709 342.152 426.324 342.312C425.938 342.472 425.513 342.514 425.104 342.432C424.694 342.351 424.318 342.15 424.023 341.855C423.728 341.559 423.526 341.183 423.445 340.774C423.364 340.364 423.405 339.94 423.565 339.554C423.725 339.168 423.996 338.838 424.343 338.606C424.69 338.374 425.098 338.25 425.516 338.25C426.076 338.25 426.613 338.473 427.008 338.869C427.404 339.265 427.627 339.802 427.627 340.362Z" fill="#86C6C5"/>
    <path d="M392.866 325.626H391.652V342.473H392.866V325.626Z" fill="#263238"/>
    <path d="M430.9 291.139H321.952V316.305H430.9V291.139Z" fill="#37474F"/>
    <path d="M388.549 295.298H326.533V297.42H388.549V295.298Z" fill="#455A64"/>
    <path d="M388.549 298.982H326.533V301.104H388.549V298.982Z" fill="#455A64"/>
    <path d="M388.549 302.656H326.533V304.778H388.549V302.656Z" fill="#455A64"/>
    <path d="M388.549 306.34H326.533V308.462H388.549V306.34Z" fill="#455A64"/>
    <path d="M388.549 310.024H326.533V312.146H388.549V310.024Z" fill="#455A64"/>
    <path d="M397.754 299.521C398.92 299.521 399.865 298.576 399.865 297.41C399.865 296.244 398.92 295.298 397.754 295.298C396.588 295.298 395.643 296.244 395.643 297.41C395.643 298.576 396.588 299.521 397.754 299.521Z" fill="#86C6C5"/>
    <path d="M406.8 297.41C406.8 297.827 406.676 298.235 406.444 298.582C406.212 298.93 405.882 299.2 405.497 299.36C405.111 299.52 404.686 299.562 404.277 299.48C403.867 299.399 403.491 299.198 403.196 298.902C402.901 298.607 402.7 298.231 402.618 297.821C402.537 297.412 402.579 296.987 402.738 296.602C402.898 296.216 403.169 295.886 403.516 295.654C403.863 295.422 404.271 295.298 404.689 295.298C405.249 295.298 405.786 295.521 406.182 295.917C406.578 296.313 406.8 296.85 406.8 297.41Z" fill="#86C6C5"/>
    <path d="M411.635 299.521C412.801 299.521 413.746 298.576 413.746 297.41C413.746 296.244 412.801 295.298 411.635 295.298C410.469 295.298 409.524 296.244 409.524 297.41C409.524 298.576 410.469 299.521 411.635 299.521Z" fill="#86C6C5"/>
    <path d="M420.681 297.41C420.681 297.827 420.557 298.235 420.325 298.582C420.093 298.93 419.764 299.2 419.378 299.36C418.992 299.52 418.568 299.562 418.158 299.48C417.749 299.399 417.372 299.198 417.077 298.902C416.782 298.607 416.581 298.231 416.499 297.821C416.418 297.412 416.46 296.987 416.619 296.602C416.779 296.216 417.05 295.886 417.397 295.654C417.744 295.422 418.152 295.298 418.57 295.298C419.13 295.298 419.667 295.521 420.063 295.917C420.459 296.313 420.681 296.85 420.681 297.41Z" fill="#86C6C5"/>
    <path d="M427.627 297.41C427.627 297.827 427.503 298.235 427.271 298.582C427.039 298.93 426.709 299.2 426.324 299.36C425.938 299.52 425.513 299.562 425.104 299.48C424.694 299.399 424.318 299.198 424.023 298.902C423.728 298.607 423.526 298.231 423.445 297.821C423.364 297.412 423.405 296.987 423.565 296.602C423.725 296.216 423.996 295.886 424.343 295.654C424.69 295.422 425.098 295.298 425.516 295.298C426.076 295.298 426.613 295.521 427.008 295.917C427.404 296.313 427.627 296.85 427.627 297.41Z" fill="#86C6C5"/>
    <path d="M397.754 305.833C398.92 305.833 399.865 304.888 399.865 303.722C399.865 302.556 398.92 301.611 397.754 301.611C396.588 301.611 395.643 302.556 395.643 303.722C395.643 304.888 396.588 305.833 397.754 305.833Z" fill="#86C6C5"/>
    <path d="M406.8 303.722C406.8 304.14 406.676 304.548 406.444 304.895C406.212 305.242 405.882 305.513 405.497 305.673C405.111 305.832 404.686 305.874 404.277 305.793C403.867 305.711 403.491 305.51 403.196 305.215C402.901 304.92 402.7 304.543 402.618 304.134C402.537 303.724 402.579 303.3 402.738 302.914C402.898 302.528 403.169 302.199 403.516 301.967C403.863 301.735 404.271 301.611 404.689 301.611C405.249 301.611 405.786 301.833 406.182 302.229C406.578 302.625 406.8 303.162 406.8 303.722Z" fill="#86C6C5"/>
    <path d="M411.635 305.833C412.801 305.833 413.746 304.888 413.746 303.722C413.746 302.556 412.801 301.611 411.635 301.611C410.469 301.611 409.524 302.556 409.524 303.722C409.524 304.888 410.469 305.833 411.635 305.833Z" fill="#86C6C5"/>
    <path d="M420.681 303.722C420.681 304.14 420.557 304.548 420.325 304.895C420.093 305.242 419.764 305.513 419.378 305.673C418.992 305.832 418.568 305.874 418.158 305.793C417.749 305.711 417.372 305.51 417.077 305.215C416.782 304.92 416.581 304.543 416.499 304.134C416.418 303.724 416.46 303.3 416.619 302.914C416.779 302.528 417.05 302.199 417.397 301.967C417.744 301.735 418.152 301.611 418.57 301.611C419.13 301.611 419.667 301.833 420.063 302.229C420.459 302.625 420.681 303.162 420.681 303.722Z" fill="#86C6C5"/>
    <path d="M427.627 303.722C427.627 304.14 427.503 304.548 427.271 304.895C427.039 305.242 426.709 305.513 426.324 305.673C425.938 305.832 425.513 305.874 425.104 305.793C424.694 305.711 424.318 305.51 424.023 305.215C423.728 304.92 423.526 304.543 423.445 304.134C423.364 303.724 423.405 303.3 423.565 302.914C423.725 302.528 423.996 302.199 424.343 301.967C424.69 301.735 425.098 301.611 425.516 301.611C426.076 301.611 426.613 301.833 427.008 302.229C427.404 302.625 427.627 303.162 427.627 303.722Z" fill="#86C6C5"/>
    <path d="M399.854 310.045C399.854 310.463 399.73 310.871 399.499 311.218C399.267 311.565 398.937 311.836 398.551 311.995C398.165 312.155 397.741 312.197 397.331 312.116C396.922 312.034 396.546 311.833 396.25 311.538C395.955 311.243 395.754 310.866 395.672 310.457C395.591 310.047 395.633 309.623 395.793 309.237C395.952 308.851 396.223 308.522 396.57 308.29C396.917 308.058 397.326 307.934 397.743 307.934C398.303 307.934 398.84 308.156 399.236 308.552C399.632 308.948 399.854 309.485 399.854 310.045Z" fill="#86C6C5"/>
    <path d="M406.8 310.045C406.8 310.463 406.676 310.871 406.444 311.218C406.212 311.565 405.882 311.836 405.497 311.995C405.111 312.155 404.686 312.197 404.277 312.116C403.867 312.034 403.491 311.833 403.196 311.538C402.901 311.243 402.7 310.866 402.618 310.457C402.537 310.047 402.579 309.623 402.738 309.237C402.898 308.851 403.169 308.522 403.516 308.29C403.863 308.058 404.271 307.934 404.689 307.934C405.249 307.934 405.786 308.156 406.182 308.552C406.578 308.948 406.8 309.485 406.8 310.045Z" fill="#86C6C5"/>
    <path d="M413.746 310.045C413.746 310.463 413.623 310.871 413.391 311.218C413.159 311.565 412.829 311.836 412.443 311.995C412.057 312.155 411.633 312.197 411.223 312.116C410.814 312.034 410.438 311.833 410.142 311.538C409.847 311.243 409.646 310.866 409.565 310.457C409.483 310.047 409.525 309.623 409.685 309.237C409.845 308.851 410.115 308.522 410.462 308.29C410.81 308.058 411.218 307.934 411.635 307.934C412.195 307.934 412.732 308.156 413.128 308.552C413.524 308.948 413.746 309.485 413.746 310.045Z" fill="#86C6C5"/>
    <path d="M420.681 310.045C420.681 310.463 420.557 310.871 420.325 311.218C420.093 311.565 419.764 311.836 419.378 311.995C418.992 312.155 418.568 312.197 418.158 312.116C417.749 312.034 417.372 311.833 417.077 311.538C416.782 311.243 416.581 310.866 416.499 310.457C416.418 310.047 416.46 309.623 416.619 309.237C416.779 308.851 417.05 308.522 417.397 308.29C417.744 308.058 418.152 307.934 418.57 307.934C419.13 307.934 419.667 308.156 420.063 308.552C420.459 308.948 420.681 309.485 420.681 310.045Z" fill="#86C6C5"/>
    <path d="M427.627 310.045C427.627 310.463 427.503 310.871 427.271 311.218C427.039 311.565 426.709 311.836 426.324 311.995C425.938 312.155 425.513 312.197 425.104 312.116C424.694 312.034 424.318 311.833 424.023 311.538C423.728 311.243 423.526 310.866 423.445 310.457C423.364 310.047 423.405 309.623 423.565 309.237C423.725 308.851 423.996 308.522 424.343 308.29C424.69 308.058 425.098 307.934 425.516 307.934C426.076 307.934 426.613 308.156 427.008 308.552C427.404 308.948 427.627 309.485 427.627 310.045Z" fill="#86C6C5"/>
    <path d="M392.866 295.298H391.652V312.146H392.866V295.298Z" fill="#263238"/>
    <path d="M430.9 260.812H321.952V285.977H430.9V260.812Z" fill="#37474F"/>
    <path d="M388.549 264.971H326.533V267.093H388.549V264.971Z" fill="#455A64"/>
    <path d="M388.549 268.655H326.533V270.777H388.549V268.655Z" fill="#455A64"/>
    <path d="M388.549 272.339H326.533V274.461H388.549V272.339Z" fill="#455A64"/>
    <path d="M388.549 276.013H326.533V278.134H388.549V276.013Z" fill="#455A64"/>
    <path d="M388.549 279.697H326.533V281.818H388.549V279.697Z" fill="#455A64"/>
    <path d="M399.854 267.082C399.854 267.5 399.73 267.908 399.499 268.255C399.267 268.602 398.937 268.873 398.551 269.033C398.165 269.193 397.741 269.234 397.331 269.153C396.922 269.071 396.546 268.87 396.25 268.575C395.955 268.28 395.754 267.904 395.672 267.494C395.591 267.085 395.633 266.66 395.793 266.274C395.952 265.889 396.223 265.559 396.57 265.327C396.917 265.095 397.326 264.971 397.743 264.971C398.303 264.971 398.84 265.194 399.236 265.589C399.632 265.985 399.854 266.522 399.854 267.082Z" fill="#86C6C5"/>
    <path d="M406.8 267.082C406.8 267.5 406.676 267.908 406.444 268.255C406.212 268.602 405.882 268.873 405.497 269.033C405.111 269.193 404.686 269.234 404.277 269.153C403.867 269.071 403.491 268.87 403.196 268.575C402.901 268.28 402.7 267.904 402.618 267.494C402.537 267.085 402.579 266.66 402.738 266.274C402.898 265.889 403.169 265.559 403.516 265.327C403.863 265.095 404.271 264.971 404.689 264.971C405.249 264.971 405.786 265.194 406.182 265.589C406.578 265.985 406.8 266.522 406.8 267.082Z" fill="#86C6C5"/>
    <path d="M413.746 267.082C413.746 267.5 413.623 267.908 413.391 268.255C413.159 268.602 412.829 268.873 412.443 269.033C412.057 269.193 411.633 269.234 411.223 269.153C410.814 269.071 410.438 268.87 410.142 268.575C409.847 268.28 409.646 267.904 409.565 267.494C409.483 267.085 409.525 266.66 409.685 266.274C409.845 265.889 410.115 265.559 410.462 265.327C410.81 265.095 411.218 264.971 411.635 264.971C412.195 264.971 412.732 265.194 413.128 265.589C413.524 265.985 413.746 266.522 413.746 267.082Z" fill="#86C6C5"/>
    <path d="M420.681 267.082C420.681 267.5 420.557 267.908 420.325 268.255C420.093 268.602 419.764 268.873 419.378 269.033C418.992 269.193 418.568 269.234 418.158 269.153C417.749 269.071 417.372 268.87 417.077 268.575C416.782 268.28 416.581 267.904 416.499 267.494C416.418 267.085 416.46 266.66 416.619 266.274C416.779 265.889 417.05 265.559 417.397 265.327C417.744 265.095 418.152 264.971 418.57 264.971C419.13 264.971 419.667 265.194 420.063 265.589C420.459 265.985 420.681 266.522 420.681 267.082Z" fill="#86C6C5"/>
    <path d="M427.627 267.082C427.627 267.5 427.503 267.908 427.271 268.255C427.039 268.602 426.709 268.873 426.324 269.033C425.938 269.193 425.513 269.234 425.104 269.153C424.694 269.071 424.318 268.87 424.023 268.575C423.728 268.28 423.526 267.904 423.445 267.494C423.364 267.085 423.405 266.66 423.565 266.274C423.725 265.889 423.996 265.559 424.343 265.327C424.69 265.095 425.098 264.971 425.516 264.971C426.076 264.971 426.613 265.194 427.008 265.589C427.404 265.985 427.627 266.522 427.627 267.082Z" fill="#86C6C5"/>
    <path d="M399.854 273.395C399.854 273.812 399.73 274.22 399.499 274.568C399.267 274.915 398.937 275.185 398.551 275.345C398.165 275.505 397.741 275.547 397.331 275.465C396.922 275.384 396.546 275.183 396.25 274.888C395.955 274.592 395.754 274.216 395.672 273.807C395.591 273.397 395.633 272.973 395.793 272.587C395.952 272.201 396.223 271.871 396.57 271.639C396.917 271.407 397.326 271.284 397.743 271.284C398.303 271.284 398.84 271.506 399.236 271.902C399.632 272.298 399.854 272.835 399.854 273.395Z" fill="#86C6C5"/>
    <path d="M406.8 273.395C406.8 273.812 406.676 274.22 406.444 274.568C406.212 274.915 405.882 275.185 405.497 275.345C405.111 275.505 404.686 275.547 404.277 275.465C403.867 275.384 403.491 275.183 403.196 274.888C402.901 274.592 402.7 274.216 402.618 273.807C402.537 273.397 402.579 272.973 402.738 272.587C402.898 272.201 403.169 271.871 403.516 271.639C403.863 271.407 404.271 271.284 404.689 271.284C405.249 271.284 405.786 271.506 406.182 271.902C406.578 272.298 406.8 272.835 406.8 273.395Z" fill="#86C6C5"/>
    <path d="M413.746 273.395C413.746 273.812 413.623 274.22 413.391 274.568C413.159 274.915 412.829 275.185 412.443 275.345C412.057 275.505 411.633 275.547 411.223 275.465C410.814 275.384 410.438 275.183 410.142 274.888C409.847 274.592 409.646 274.216 409.565 273.807C409.483 273.397 409.525 272.973 409.685 272.587C409.845 272.201 410.115 271.871 410.462 271.639C410.81 271.407 411.218 271.284 411.635 271.284C412.195 271.284 412.732 271.506 413.128 271.902C413.524 272.298 413.746 272.835 413.746 273.395Z" fill="#86C6C5"/>
    <path d="M420.681 273.395C420.681 273.812 420.557 274.22 420.325 274.568C420.093 274.915 419.764 275.185 419.378 275.345C418.992 275.505 418.568 275.547 418.158 275.465C417.749 275.384 417.372 275.183 417.077 274.888C416.782 274.592 416.581 274.216 416.499 273.807C416.418 273.397 416.46 272.973 416.619 272.587C416.779 272.201 417.05 271.871 417.397 271.639C417.744 271.407 418.152 271.284 418.57 271.284C419.13 271.284 419.667 271.506 420.063 271.902C420.459 272.298 420.681 272.835 420.681 273.395Z" fill="#86C6C5"/>
    <path d="M427.627 273.395C427.627 273.812 427.503 274.22 427.271 274.568C427.039 274.915 426.709 275.185 426.324 275.345C425.938 275.505 425.513 275.547 425.104 275.465C424.694 275.384 424.318 275.183 424.023 274.888C423.728 274.592 423.526 274.216 423.445 273.807C423.364 273.397 423.405 272.973 423.565 272.587C423.725 272.201 423.996 271.871 424.343 271.639C424.69 271.407 425.098 271.284 425.516 271.284C426.076 271.284 426.613 271.506 427.008 271.902C427.404 272.298 427.627 272.835 427.627 273.395Z" fill="#86C6C5"/>
    <path d="M399.854 279.718C399.854 280.135 399.73 280.544 399.499 280.891C399.267 281.238 398.937 281.508 398.551 281.668C398.165 281.828 397.741 281.87 397.331 281.788C396.922 281.707 396.546 281.506 396.25 281.211C395.955 280.915 395.754 280.539 395.672 280.13C395.591 279.72 395.633 279.296 395.793 278.91C395.952 278.524 396.223 278.194 396.57 277.962C396.917 277.73 397.326 277.607 397.743 277.607C398.303 277.607 398.84 277.829 399.236 278.225C399.632 278.621 399.854 279.158 399.854 279.718Z" fill="#86C6C5"/>
    <path d="M406.8 279.718C406.8 280.135 406.676 280.544 406.444 280.891C406.212 281.238 405.882 281.508 405.497 281.668C405.111 281.828 404.686 281.87 404.277 281.788C403.867 281.707 403.491 281.506 403.196 281.211C402.901 280.915 402.7 280.539 402.618 280.13C402.537 279.72 402.579 279.296 402.738 278.91C402.898 278.524 403.169 278.194 403.516 277.962C403.863 277.73 404.271 277.607 404.689 277.607C405.249 277.607 405.786 277.829 406.182 278.225C406.578 278.621 406.8 279.158 406.8 279.718Z" fill="#86C6C5"/>
    <path d="M413.746 279.718C413.746 280.135 413.623 280.544 413.391 280.891C413.159 281.238 412.829 281.508 412.443 281.668C412.057 281.828 411.633 281.87 411.223 281.788C410.814 281.707 410.438 281.506 410.142 281.211C409.847 280.915 409.646 280.539 409.565 280.13C409.483 279.72 409.525 279.296 409.685 278.91C409.845 278.524 410.115 278.194 410.462 277.962C410.81 277.73 411.218 277.607 411.635 277.607C412.195 277.607 412.732 277.829 413.128 278.225C413.524 278.621 413.746 279.158 413.746 279.718Z" fill="#86C6C5"/>
    <path d="M420.681 279.718C420.681 280.135 420.557 280.544 420.325 280.891C420.093 281.238 419.764 281.508 419.378 281.668C418.992 281.828 418.568 281.87 418.158 281.788C417.749 281.707 417.372 281.506 417.077 281.211C416.782 280.915 416.581 280.539 416.499 280.13C416.418 279.72 416.46 279.296 416.619 278.91C416.779 278.524 417.05 278.194 417.397 277.962C417.744 277.73 418.152 277.607 418.57 277.607C419.13 277.607 419.667 277.829 420.063 278.225C420.459 278.621 420.681 279.158 420.681 279.718Z" fill="#86C6C5"/>
    <path d="M427.627 279.718C427.627 280.135 427.503 280.544 427.271 280.891C427.039 281.238 426.709 281.508 426.324 281.668C425.938 281.828 425.513 281.87 425.104 281.788C424.694 281.707 424.318 281.506 424.023 281.211C423.728 280.915 423.526 280.539 423.445 280.13C423.364 279.72 423.405 279.296 423.565 278.91C423.725 278.524 423.996 278.194 424.343 277.962C424.69 277.73 425.098 277.607 425.516 277.607C426.076 277.607 426.613 277.829 427.008 278.225C427.404 278.621 427.627 279.158 427.627 279.718Z" fill="#86C6C5"/>
    <path d="M392.866 264.971H391.652V281.818H392.866V264.971Z" fill="#263238"/>
    <path d="M430.9 230.495H321.952V255.661H430.9V230.495Z" fill="#37474F"/>
    <path d="M388.549 234.644H326.533V236.766H388.549V234.644Z" fill="#455A64"/>
    <path d="M388.549 238.328H326.533V240.45H388.549V238.328Z" fill="#455A64"/>
    <path d="M388.549 242.012H326.533V244.134H388.549V242.012Z" fill="#455A64"/>
    <path d="M388.549 245.696H326.533V247.818H388.549V245.696Z" fill="#455A64"/>
    <path d="M388.549 249.369H326.533V251.491H388.549V249.369Z" fill="#455A64"/>
    <path d="M399.854 236.755C399.854 237.173 399.73 237.581 399.499 237.928C399.267 238.275 398.937 238.546 398.551 238.706C398.165 238.865 397.741 238.907 397.331 238.826C396.922 238.744 396.546 238.543 396.25 238.248C395.955 237.953 395.754 237.576 395.672 237.167C395.591 236.757 395.633 236.333 395.793 235.947C395.952 235.561 396.223 235.232 396.57 235C396.917 234.768 397.326 234.644 397.743 234.644C398.303 234.644 398.84 234.866 399.236 235.262C399.632 235.658 399.854 236.195 399.854 236.755Z" fill="#86C6C5"/>
    <path d="M406.8 236.755C406.8 237.173 406.676 237.581 406.444 237.928C406.212 238.275 405.882 238.546 405.497 238.706C405.111 238.865 404.686 238.907 404.277 238.826C403.867 238.744 403.491 238.543 403.196 238.248C402.901 237.953 402.7 237.576 402.618 237.167C402.537 236.757 402.579 236.333 402.738 235.947C402.898 235.561 403.169 235.232 403.516 235C403.863 234.768 404.271 234.644 404.689 234.644C405.249 234.644 405.786 234.866 406.182 235.262C406.578 235.658 406.8 236.195 406.8 236.755Z" fill="#86C6C5"/>
    <path d="M413.746 236.755C413.746 237.173 413.623 237.581 413.391 237.928C413.159 238.275 412.829 238.546 412.443 238.706C412.057 238.865 411.633 238.907 411.223 238.826C410.814 238.744 410.438 238.543 410.142 238.248C409.847 237.953 409.646 237.576 409.565 237.167C409.483 236.757 409.525 236.333 409.685 235.947C409.845 235.561 410.115 235.232 410.462 235C410.81 234.768 411.218 234.644 411.635 234.644C412.195 234.644 412.732 234.866 413.128 235.262C413.524 235.658 413.746 236.195 413.746 236.755Z" fill="#86C6C5"/>
    <path d="M420.681 236.755C420.681 237.173 420.557 237.581 420.325 237.928C420.093 238.275 419.764 238.546 419.378 238.706C418.992 238.865 418.568 238.907 418.158 238.826C417.749 238.744 417.372 238.543 417.077 238.248C416.782 237.953 416.581 237.576 416.499 237.167C416.418 236.757 416.46 236.333 416.619 235.947C416.779 235.561 417.05 235.232 417.397 235C417.744 234.768 418.152 234.644 418.57 234.644C419.13 234.644 419.667 234.866 420.063 235.262C420.459 235.658 420.681 236.195 420.681 236.755Z" fill="#86C6C5"/>
    <path d="M427.627 236.755C427.627 237.173 427.503 237.581 427.271 237.928C427.039 238.275 426.709 238.546 426.324 238.706C425.938 238.865 425.513 238.907 425.104 238.826C424.694 238.744 424.318 238.543 424.023 238.248C423.728 237.953 423.526 237.576 423.445 237.167C423.364 236.757 423.405 236.333 423.565 235.947C423.725 235.561 423.996 235.232 424.343 235C424.69 234.768 425.098 234.644 425.516 234.644C426.076 234.644 426.613 234.866 427.008 235.262C427.404 235.658 427.627 236.195 427.627 236.755Z" fill="#86C6C5"/>
    <path d="M399.854 243.078C399.854 243.496 399.73 243.904 399.499 244.251C399.267 244.598 398.937 244.869 398.551 245.029C398.165 245.188 397.741 245.23 397.331 245.149C396.922 245.067 396.546 244.866 396.25 244.571C395.955 244.276 395.754 243.899 395.672 243.49C395.591 243.08 395.633 242.656 395.793 242.27C395.952 241.884 396.223 241.555 396.57 241.323C396.917 241.091 397.326 240.967 397.743 240.967C398.303 240.967 398.84 241.189 399.236 241.585C399.632 241.981 399.854 242.518 399.854 243.078Z" fill="#86C6C5"/>
    <path d="M406.8 243.078C406.8 243.496 406.676 243.904 406.444 244.251C406.212 244.598 405.882 244.869 405.497 245.029C405.111 245.188 404.686 245.23 404.277 245.149C403.867 245.067 403.491 244.866 403.196 244.571C402.901 244.276 402.7 243.899 402.618 243.49C402.537 243.08 402.579 242.656 402.738 242.27C402.898 241.884 403.169 241.555 403.516 241.323C403.863 241.091 404.271 240.967 404.689 240.967C405.249 240.967 405.786 241.189 406.182 241.585C406.578 241.981 406.8 242.518 406.8 243.078Z" fill="#86C6C5"/>
    <path d="M413.746 243.078C413.746 243.496 413.623 243.904 413.391 244.251C413.159 244.598 412.829 244.869 412.443 245.029C412.057 245.188 411.633 245.23 411.223 245.149C410.814 245.067 410.438 244.866 410.142 244.571C409.847 244.276 409.646 243.899 409.565 243.49C409.483 243.08 409.525 242.656 409.685 242.27C409.845 241.884 410.115 241.555 410.462 241.323C410.81 241.091 411.218 240.967 411.635 240.967C412.195 240.967 412.732 241.189 413.128 241.585C413.524 241.981 413.746 242.518 413.746 243.078Z" fill="#86C6C5"/>
    <path d="M420.681 243.078C420.681 243.496 420.557 243.904 420.325 244.251C420.093 244.598 419.764 244.869 419.378 245.029C418.992 245.188 418.568 245.23 418.158 245.149C417.749 245.067 417.372 244.866 417.077 244.571C416.782 244.276 416.581 243.899 416.499 243.49C416.418 243.08 416.46 242.656 416.619 242.27C416.779 241.884 417.05 241.555 417.397 241.323C417.744 241.091 418.152 240.967 418.57 240.967C419.13 240.967 419.667 241.189 420.063 241.585C420.459 241.981 420.681 242.518 420.681 243.078Z" fill="#86C6C5"/>
    <path d="M427.627 243.078C427.627 243.496 427.503 243.904 427.271 244.251C427.039 244.598 426.709 244.869 426.324 245.029C425.938 245.188 425.513 245.23 425.104 245.149C424.694 245.067 424.318 244.866 424.023 244.571C423.728 244.276 423.526 243.899 423.445 243.49C423.364 243.08 423.405 242.656 423.565 242.27C423.725 241.884 423.996 241.555 424.343 241.323C424.69 241.091 425.098 240.967 425.516 240.967C426.076 240.967 426.613 241.189 427.008 241.585C427.404 241.981 427.627 242.518 427.627 243.078Z" fill="#86C6C5"/>
    <path d="M399.854 249.391C399.854 249.808 399.73 250.216 399.499 250.563C399.267 250.911 398.937 251.181 398.551 251.341C398.165 251.501 397.741 251.543 397.331 251.461C396.922 251.38 396.546 251.179 396.25 250.883C395.955 250.588 395.754 250.212 395.672 249.802C395.591 249.393 395.633 248.968 395.793 248.583C395.952 248.197 396.223 247.867 396.57 247.635C396.917 247.403 397.326 247.279 397.743 247.279C398.303 247.279 398.84 247.502 399.236 247.898C399.632 248.294 399.854 248.831 399.854 249.391Z" fill="#86C6C5"/>
    <path d="M406.8 249.391C406.8 249.808 406.676 250.216 406.444 250.563C406.212 250.911 405.882 251.181 405.497 251.341C405.111 251.501 404.686 251.543 404.277 251.461C403.867 251.38 403.491 251.179 403.196 250.883C402.901 250.588 402.7 250.212 402.618 249.802C402.537 249.393 402.579 248.968 402.738 248.583C402.898 248.197 403.169 247.867 403.516 247.635C403.863 247.403 404.271 247.279 404.689 247.279C405.249 247.279 405.786 247.502 406.182 247.898C406.578 248.294 406.8 248.831 406.8 249.391Z" fill="#86C6C5"/>
    <path d="M413.746 249.391C413.746 249.808 413.623 250.216 413.391 250.563C413.159 250.911 412.829 251.181 412.443 251.341C412.057 251.501 411.633 251.543 411.223 251.461C410.814 251.38 410.438 251.179 410.142 250.883C409.847 250.588 409.646 250.212 409.565 249.802C409.483 249.393 409.525 248.968 409.685 248.583C409.845 248.197 410.115 247.867 410.462 247.635C410.81 247.403 411.218 247.279 411.635 247.279C412.195 247.279 412.732 247.502 413.128 247.898C413.524 248.294 413.746 248.831 413.746 249.391Z" fill="#86C6C5"/>
    <path d="M420.681 249.391C420.681 249.808 420.557 250.216 420.325 250.563C420.093 250.911 419.764 251.181 419.378 251.341C418.992 251.501 418.568 251.543 418.158 251.461C417.749 251.38 417.372 251.179 417.077 250.883C416.782 250.588 416.581 250.212 416.499 249.802C416.418 249.393 416.46 248.968 416.619 248.583C416.779 248.197 417.05 247.867 417.397 247.635C417.744 247.403 418.152 247.279 418.57 247.279C419.13 247.279 419.667 247.502 420.063 247.898C420.459 248.294 420.681 248.831 420.681 249.391Z" fill="#86C6C5"/>
    <path d="M427.627 249.391C427.627 249.808 427.503 250.216 427.271 250.563C427.039 250.911 426.709 251.181 426.324 251.341C425.938 251.501 425.513 251.543 425.104 251.461C424.694 251.38 424.318 251.179 424.023 250.883C423.728 250.588 423.526 250.212 423.445 249.802C423.364 249.393 423.405 248.968 423.565 248.583C423.725 248.197 423.996 247.867 424.343 247.635C424.69 247.403 425.098 247.279 425.516 247.279C426.076 247.279 426.613 247.502 427.008 247.898C427.404 248.294 427.627 248.831 427.627 249.391Z" fill="#86C6C5"/>
    <path d="M392.866 234.644H391.652V251.491H392.866V234.644Z" fill="#263238"/>
    <path d="M430.9 200.168H321.952V225.334H430.9V200.168Z" fill="#37474F"/>
    <path d="M388.549 204.327H326.533V206.449H388.549V204.327Z" fill="#455A64"/>
    <path d="M388.549 208.001H326.533V210.122H388.549V208.001Z" fill="#455A64"/>
    <path d="M388.549 211.685H326.533V213.806H388.549V211.685Z" fill="#455A64"/>
    <path d="M388.549 215.369H326.533V217.49H388.549V215.369Z" fill="#455A64"/>
    <path d="M388.549 219.053H326.533V221.175H388.549V219.053Z" fill="#455A64"/>
    <path d="M399.854 206.428C399.854 206.845 399.73 207.254 399.499 207.601C399.267 207.948 398.937 208.219 398.551 208.378C398.165 208.538 397.741 208.58 397.331 208.498C396.922 208.417 396.546 208.216 396.25 207.921C395.955 207.625 395.754 207.249 395.672 206.84C395.591 206.43 395.633 206.006 395.793 205.62C395.952 205.234 396.223 204.904 396.57 204.672C396.917 204.44 397.326 204.317 397.743 204.317C398.303 204.317 398.84 204.539 399.236 204.935C399.632 205.331 399.854 205.868 399.854 206.428Z" fill="#86C6C5"/>
    <path d="M406.8 206.428C406.8 206.845 406.676 207.254 406.444 207.601C406.212 207.948 405.882 208.219 405.497 208.378C405.111 208.538 404.686 208.58 404.277 208.498C403.867 208.417 403.491 208.216 403.196 207.921C402.901 207.625 402.7 207.249 402.618 206.84C402.537 206.43 402.579 206.006 402.738 205.62C402.898 205.234 403.169 204.904 403.516 204.672C403.863 204.44 404.271 204.317 404.689 204.317C405.249 204.317 405.786 204.539 406.182 204.935C406.578 205.331 406.8 205.868 406.8 206.428Z" fill="#86C6C5"/>
    <path d="M413.746 206.428C413.746 206.845 413.623 207.254 413.391 207.601C413.159 207.948 412.829 208.219 412.443 208.378C412.057 208.538 411.633 208.58 411.223 208.498C410.814 208.417 410.438 208.216 410.142 207.921C409.847 207.625 409.646 207.249 409.565 206.84C409.483 206.43 409.525 206.006 409.685 205.62C409.845 205.234 410.115 204.904 410.462 204.672C410.81 204.44 411.218 204.317 411.635 204.317C412.195 204.317 412.732 204.539 413.128 204.935C413.524 205.331 413.746 205.868 413.746 206.428Z" fill="#86C6C5"/>
    <path d="M420.681 206.428C420.681 206.845 420.557 207.254 420.325 207.601C420.093 207.948 419.764 208.219 419.378 208.378C418.992 208.538 418.568 208.58 418.158 208.498C417.749 208.417 417.372 208.216 417.077 207.921C416.782 207.625 416.581 207.249 416.499 206.84C416.418 206.43 416.46 206.006 416.619 205.62C416.779 205.234 417.05 204.904 417.397 204.672C417.744 204.44 418.152 204.317 418.57 204.317C419.13 204.317 419.667 204.539 420.063 204.935C420.459 205.331 420.681 205.868 420.681 206.428Z" fill="#86C6C5"/>
    <path d="M427.627 206.428C427.627 206.845 427.503 207.254 427.271 207.601C427.039 207.948 426.709 208.219 426.324 208.378C425.938 208.538 425.513 208.58 425.104 208.498C424.694 208.417 424.318 208.216 424.023 207.921C423.728 207.625 423.526 207.249 423.445 206.84C423.364 206.43 423.405 206.006 423.565 205.62C423.725 205.234 423.996 204.904 424.343 204.672C424.69 204.44 425.098 204.317 425.516 204.317C426.076 204.317 426.613 204.539 427.008 204.935C427.404 205.331 427.627 205.868 427.627 206.428Z" fill="#86C6C5"/>
    <path d="M397.754 214.862C398.92 214.862 399.865 213.917 399.865 212.751C399.865 211.585 398.92 210.64 397.754 210.64C396.588 210.64 395.643 211.585 395.643 212.751C395.643 213.917 396.588 214.862 397.754 214.862Z" fill="#86C6C5"/>
    <path d="M406.8 212.751C406.8 213.168 406.676 213.577 406.444 213.924C406.212 214.271 405.882 214.542 405.497 214.701C405.111 214.861 404.686 214.903 404.277 214.821C403.867 214.74 403.491 214.539 403.196 214.244C402.901 213.948 402.7 213.572 402.618 213.163C402.537 212.753 402.579 212.329 402.738 211.943C402.898 211.557 403.169 211.227 403.516 210.995C403.863 210.763 404.271 210.64 404.689 210.64C405.249 210.64 405.786 210.862 406.182 211.258C406.578 211.654 406.8 212.191 406.8 212.751Z" fill="#86C6C5"/>
    <path d="M411.635 214.862C412.801 214.862 413.746 213.917 413.746 212.751C413.746 211.585 412.801 210.64 411.635 210.64C410.469 210.64 409.524 211.585 409.524 212.751C409.524 213.917 410.469 214.862 411.635 214.862Z" fill="#86C6C5"/>
    <path d="M420.681 212.751C420.681 213.168 420.557 213.577 420.325 213.924C420.093 214.271 419.764 214.542 419.378 214.701C418.992 214.861 418.568 214.903 418.158 214.821C417.749 214.74 417.372 214.539 417.077 214.244C416.782 213.948 416.581 213.572 416.499 213.163C416.418 212.753 416.46 212.329 416.619 211.943C416.779 211.557 417.05 211.227 417.397 210.995C417.744 210.763 418.152 210.64 418.57 210.64C419.13 210.64 419.667 210.862 420.063 211.258C420.459 211.654 420.681 212.191 420.681 212.751Z" fill="#86C6C5"/>
    <path d="M427.627 212.751C427.627 213.168 427.503 213.577 427.271 213.924C427.039 214.271 426.709 214.542 426.324 214.701C425.938 214.861 425.513 214.903 425.104 214.821C424.694 214.74 424.318 214.539 424.023 214.244C423.728 213.948 423.526 213.572 423.445 213.163C423.364 212.753 423.405 212.329 423.565 211.943C423.725 211.557 423.996 211.227 424.343 210.995C424.69 210.763 425.098 210.64 425.516 210.64C426.076 210.64 426.613 210.862 427.008 211.258C427.404 211.654 427.627 212.191 427.627 212.751Z" fill="#86C6C5"/>
    <path d="M399.854 219.063C399.854 219.481 399.73 219.889 399.499 220.236C399.267 220.583 398.937 220.854 398.551 221.014C398.165 221.174 397.741 221.215 397.331 221.134C396.922 221.052 396.546 220.851 396.25 220.556C395.955 220.261 395.754 219.885 395.672 219.475C395.591 219.066 395.633 218.641 395.793 218.255C395.952 217.87 396.223 217.54 396.57 217.308C396.917 217.076 397.326 216.952 397.743 216.952C398.303 216.952 398.84 217.175 399.236 217.57C399.632 217.966 399.854 218.503 399.854 219.063Z" fill="#86C6C5"/>
    <path d="M406.8 219.063C406.8 219.481 406.676 219.889 406.444 220.236C406.212 220.583 405.882 220.854 405.497 221.014C405.111 221.174 404.686 221.215 404.277 221.134C403.867 221.052 403.491 220.851 403.196 220.556C402.901 220.261 402.7 219.885 402.618 219.475C402.537 219.066 402.579 218.641 402.738 218.255C402.898 217.87 403.169 217.54 403.516 217.308C403.863 217.076 404.271 216.952 404.689 216.952C405.249 216.952 405.786 217.175 406.182 217.57C406.578 217.966 406.8 218.503 406.8 219.063Z" fill="#86C6C5"/>
    <path d="M413.746 219.063C413.746 219.481 413.623 219.889 413.391 220.236C413.159 220.583 412.829 220.854 412.443 221.014C412.057 221.174 411.633 221.215 411.223 221.134C410.814 221.052 410.438 220.851 410.142 220.556C409.847 220.261 409.646 219.885 409.565 219.475C409.483 219.066 409.525 218.641 409.685 218.255C409.845 217.87 410.115 217.54 410.462 217.308C410.81 217.076 411.218 216.952 411.635 216.952C412.195 216.952 412.732 217.175 413.128 217.57C413.524 217.966 413.746 218.503 413.746 219.063Z" fill="#86C6C5"/>
    <path d="M420.681 219.063C420.681 219.481 420.557 219.889 420.325 220.236C420.093 220.583 419.764 220.854 419.378 221.014C418.992 221.174 418.568 221.215 418.158 221.134C417.749 221.052 417.372 220.851 417.077 220.556C416.782 220.261 416.581 219.885 416.499 219.475C416.418 219.066 416.46 218.641 416.619 218.255C416.779 217.87 417.05 217.54 417.397 217.308C417.744 217.076 418.152 216.952 418.57 216.952C419.13 216.952 419.667 217.175 420.063 217.57C420.459 217.966 420.681 218.503 420.681 219.063Z" fill="#86C6C5"/>
    <path d="M427.627 219.063C427.627 219.481 427.503 219.889 427.271 220.236C427.039 220.583 426.709 220.854 426.324 221.014C425.938 221.174 425.513 221.215 425.104 221.134C424.694 221.052 424.318 220.851 424.023 220.556C423.728 220.261 423.526 219.885 423.445 219.475C423.364 219.066 423.405 218.641 423.565 218.255C423.725 217.87 423.996 217.54 424.343 217.308C424.69 217.076 425.098 216.952 425.516 216.952C426.076 216.952 426.613 217.175 427.008 217.57C427.404 217.966 427.627 218.503 427.627 219.063Z" fill="#86C6C5"/>
    <path d="M392.866 204.327H391.652V221.175H392.866V204.327Z" fill="#263238"/>
    <path d="M413.123 179.225H269.509V187.205H413.123V179.225Z" fill="#37474F"/>
    <path d="M270.945 406.4H254.911V422.434H270.945V406.4Z" fill="#263238"/>
    <path d="M35.5161 374.383H7.47949V402.42H35.5161V374.383Z" fill="#37474F"/>
    <path d="M21.4979 397.754C26.6691 397.754 30.8611 393.562 30.8611 388.391C30.8611 383.22 26.6691 379.028 21.4979 379.028C16.3268 379.028 12.1348 383.22 12.1348 388.391C12.1348 393.562 16.3268 397.754 21.4979 397.754Z" fill="#455A64"/>
    <path d="M19.7876 384.612H17.6764V392.339H19.7876V384.612Z" fill="#263238"/>
    <path d="M25.6564 384.612H23.5452V392.339H25.6564V384.612Z" fill="#263238"/>
    <path d="M0.501953 446.006L56.7546 445.752L113.007 445.657L225.502 445.478L337.997 445.657L394.249 445.752L450.502 446.006L394.249 446.269L337.997 446.364L225.502 446.533L113.007 446.354L56.7546 446.259L0.501953 446.006Z" fill="#263238"/>
    <path d="M96.8042 419.542C97.8598 421.78 93.8063 437.814 92.5818 441.108C91.3573 444.401 86.8922 462.779 84.7387 463.571C82.5853 464.362 72.1455 464.141 70.6677 463.571C69.1898 463.001 70.6677 459.866 72.3672 458.768C74.0667 457.67 76.104 455.992 76.104 455.992C76.104 455.992 73.0533 427.607 73.6233 424.429C74.1933 421.252 94.0596 413.535 96.8042 419.542Z" fill="#86C6C5"/>
    <path opacity="0.1" d="M96.8042 419.542C97.8598 421.78 93.8063 437.814 92.5818 441.108C91.3573 444.401 86.8922 462.779 84.7387 463.571C82.5853 464.362 72.1455 464.141 70.6677 463.571C69.1898 463.001 70.6677 459.866 72.3672 458.768C74.0667 457.67 76.104 455.992 76.104 455.992C76.104 455.992 73.0533 427.607 73.6233 424.429C74.1933 421.252 94.0596 413.535 96.8042 419.542Z" fill="black"/>
    <path opacity="0.1" d="M74.9743 462.336C75.09 461.769 75.3238 461.233 75.6605 460.763C75.9974 460.303 76.3992 459.894 76.8533 459.549C77.2943 459.201 77.8058 458.952 78.3522 458.821C78.3688 458.813 78.3874 458.813 78.4045 458.818C78.4216 458.824 78.436 458.836 78.4451 458.851C78.4542 458.867 78.4573 458.885 78.4538 458.903C78.4503 458.92 78.4404 458.936 78.4261 458.947C78.2361 459.116 78.025 459.264 77.8455 459.443C77.6661 459.623 77.4655 459.813 77.2966 460.003C76.9501 460.374 76.6489 460.785 76.3994 461.227C76.1355 461.66 75.8927 462.103 75.6605 462.568C75.4282 463.032 75.3121 463.528 75.1327 464.014C75.1327 464.042 75.1215 464.069 75.1017 464.089C75.0819 464.108 75.0551 464.12 75.0271 464.12C74.9991 464.12 74.9723 464.108 74.9525 464.089C74.9327 464.069 74.9215 464.042 74.9215 464.014C74.8162 463.457 74.8342 462.885 74.9743 462.336Z" fill="black"/>
    <path opacity="0.1" d="M71.9239 460.668C72.5047 459.666 73.3986 458.884 74.4679 458.44C74.5418 458.44 74.6157 458.493 74.5524 458.546C73.7451 459.182 73.0586 459.958 72.5256 460.837C72.2591 461.285 72.0862 461.783 72.0173 462.3C71.9483 462.817 71.9848 463.343 72.1245 463.845C72.1245 463.845 72.1245 463.908 72.0506 463.845C71.7427 463.377 71.5682 462.834 71.5459 462.274C71.5236 461.714 71.6543 461.159 71.9239 460.668Z" fill="black"/>
    <path opacity="0.1" d="M74.4888 440.105L88.8343 453.68C90.4177 448.476 91.8955 442.818 92.5394 441.139C93.8061 437.846 97.8174 421.811 96.7618 419.573C94.0067 413.567 74.0876 421.284 73.5387 424.461C73.317 425.928 73.8448 433.001 74.4888 440.105Z" fill="black"/>
    <path d="M150.988 435.587C151.568 436.136 157.216 430.794 158.081 428.293C158.947 425.791 155.337 418.729 155.97 417.526C156.604 416.322 159.718 415.362 161.312 417.209C162.905 419.056 166.991 429.179 166.146 433.507C165.302 437.835 156.614 447.494 155.696 447.494C154.777 447.494 150.988 435.587 150.988 435.587Z" fill="#86C6C5"/>
    <path opacity="0.1" d="M150.988 435.587C150.988 435.587 154.798 447.41 155.696 447.462C156.361 447.462 161.195 442.332 164.088 437.867L156.181 431.206C154.186 433.56 151.389 435.967 150.988 435.587Z" fill="black"/>
    <path d="M119.087 386.755H72.2187C72.2187 386.755 68.7353 417.621 69.1153 421.706C69.4953 425.791 90.09 456.055 96.4763 459.961C102.863 463.866 139.576 464.056 148.507 462.072C155.452 460.541 161.248 451.674 158.366 438.025C157.11 432.051 140.832 417.821 138.563 415.098C136.293 412.374 119.087 386.755 119.087 386.755Z" fill="#C7C7C7"/>
    <path d="M69.1155 421.706C69.4955 425.791 90.0901 456.055 96.487 459.961C102.884 463.866 139.576 464.056 148.517 462.072C155.453 460.541 161.258 451.674 158.366 438.015C157.11 432.051 140.843 417.821 138.574 415.098C137.18 413.43 130.192 403.17 124.978 395.464C121.674 390.587 119.087 386.734 119.087 386.734H72.2189C72.2189 386.734 71.3428 394.482 70.5194 402.726C69.696 410.97 68.9254 419.669 69.1155 421.706Z" fill="#86C6C5"/>
    <path opacity="0.1" d="M70.5196 402.747C95.7061 410.516 118.106 399.464 124.978 395.485C121.674 390.608 119.087 386.755 119.087 386.755H72.2191C72.2191 386.755 71.3852 394.503 70.5196 402.747Z" fill="black"/>
    <path d="M149.404 436.558C149.404 436.558 136.505 428.462 127.458 429.918C118.412 431.375 115.213 449.975 119.552 460.414C119.552 460.414 111.297 462.863 111.297 466.854C111.297 469.123 116.016 469.851 122.814 469.683C129.612 469.514 143.144 469.387 143.44 467.677C143.503 466.268 143.197 464.867 142.553 463.613C142.553 463.613 154.766 462.241 157.163 454.113C159.559 445.984 151.441 437.92 149.404 436.558Z" fill="#86C6C5"/>
    <path opacity="0.1" d="M131.786 461.333C135.244 462.748 138.917 463.562 142.648 463.74C142.722 463.74 142.743 463.866 142.648 463.877C138.844 464.252 135.019 463.39 131.744 461.417C131.702 461.396 131.734 461.301 131.786 461.333Z" fill="black"/>
    <path opacity="0.1" d="M116.607 469.735C117.056 468.216 118.058 466.921 119.415 466.104C120.151 465.595 120.954 465.19 121.801 464.901C122.772 464.574 123.764 464.394 124.746 464.088C124.82 464.088 124.883 464.183 124.746 464.215C123.906 464.518 123.094 464.893 122.318 465.334C121.53 465.741 120.765 466.192 120.027 466.685C118.811 467.567 117.743 468.636 116.86 469.851C116.829 469.989 116.565 469.915 116.607 469.735Z" fill="black"/>
    <path opacity="0.1" d="M118.275 463.328C118.291 463.328 118.308 463.335 118.319 463.346C118.331 463.358 118.338 463.374 118.338 463.391C118.338 463.408 118.331 463.424 118.319 463.436C118.308 463.448 118.291 463.455 118.275 463.455C115.776 464.498 113.784 466.475 112.722 468.965C112.722 469.07 112.49 469.07 112.511 468.965C112.717 467.522 113.393 466.187 114.436 465.168C115.478 464.148 116.827 463.502 118.275 463.328Z" fill="black"/>
    <path opacity="0.1" d="M114.253 462.747C114.253 462.747 114.253 462.811 114.253 462.8C115.86 461.849 117.562 461.067 119.33 460.467C119.541 460.837 119.763 461.206 120.006 461.523C120.006 461.597 120.164 461.523 120.122 461.46C118.581 458.202 117.808 454.634 117.863 451.03C117.87 449.122 117.983 447.215 118.201 445.319C118.644 441.995 119.681 438.777 121.262 435.819C122.152 433.962 123.527 432.379 125.242 431.238C127.092 430.337 129.158 429.971 131.206 430.182C133.319 430.324 135.409 430.71 137.434 431.333C139.491 431.902 141.508 432.608 143.472 433.444C139.707 431.305 135.563 429.918 131.269 429.359C129.045 429.049 126.779 429.417 124.767 430.414C122.874 431.617 121.342 433.31 120.333 435.312C118.337 439.201 117.23 443.484 117.092 447.853C117.092 448.349 117.092 448.856 117.092 449.352C117.092 450.017 117.092 450.671 117.092 451.336C117.109 454.472 117.872 457.559 119.32 460.341C117.429 460.62 115.664 461.458 114.253 462.747Z" fill="black"/>
    <path d="M111.952 423.521C113.007 425.749 108.954 441.783 107.729 445.077C106.505 448.37 101.998 466.748 99.8864 467.55C97.7752 468.352 87.2931 468.12 85.8153 467.55C84.3375 466.98 85.8153 463.845 87.5148 462.747C89.2143 461.649 91.241 459.971 91.241 459.971C91.241 459.971 88.2009 431.586 88.7604 428.409C89.3199 425.231 109.207 417.505 111.952 423.521Z" fill="#86C6C5"/>
    <path opacity="0.1" d="M104.921 453.986C105.882 451.094 107.138 448.286 108.088 445.404C108.088 445.288 108.31 445.341 108.267 445.457C107.528 447.779 106.969 450.165 106.272 452.508C106.378 452.35 106.473 452.181 106.568 452.022C107.261 451.134 107.819 450.149 108.225 449.098C108.232 449.073 108.249 449.052 108.272 449.039C108.294 449.026 108.321 449.023 108.347 449.03C108.372 449.037 108.393 449.054 108.406 449.076C108.419 449.099 108.422 449.126 108.415 449.151C108.262 449.645 108.053 450.12 107.792 450.566C107.518 451.083 107.233 451.621 106.948 452.117C106.663 452.614 106.198 453.448 105.787 454.091C105.787 454.144 105.787 454.186 105.787 454.229C104.89 457.145 103.833 460.01 102.62 462.811C102.604 462.836 102.58 462.855 102.552 462.866C102.525 462.876 102.494 462.878 102.465 462.869C102.437 462.861 102.412 462.843 102.394 462.82C102.376 462.796 102.366 462.767 102.367 462.737C103.071 459.779 103.923 456.858 104.921 453.986Z" fill="black"/>
    <path opacity="0.1" d="M88.3273 432.927C88.3273 432.874 88.4434 432.853 88.4539 432.927C88.7601 435.038 88.8867 437.255 89.1084 439.419C89.3301 441.583 89.6045 443.905 89.8473 446.153C90.3435 450.619 91.0929 455.073 91.4518 459.549C91.4518 459.739 91.1246 459.76 91.0718 459.549C89.998 455.244 89.2743 450.86 88.9078 446.438C88.6756 444.243 88.5384 442.047 88.4328 439.851C88.2694 437.547 88.2341 435.235 88.3273 432.927Z" fill="black"/>
    <path opacity="0.1" d="M89.6153 466.083C89.7224 465.515 89.9531 464.979 90.2909 464.51C90.6287 464.047 91.0344 463.638 91.4943 463.296C91.9329 462.944 92.4452 462.695 92.9932 462.568C93.0089 462.565 93.025 462.567 93.0392 462.575C93.0535 462.582 93.065 462.593 93.0721 462.608C93.0792 462.622 93.0815 462.638 93.0787 462.654C93.0759 462.669 93.0682 462.684 93.0565 462.695C92.8665 462.874 92.6554 463.011 92.476 463.191L91.9271 463.75C91.5862 464.126 91.2855 464.536 91.0298 464.975C90.7765 465.407 90.5231 465.851 90.3014 466.315C90.0798 466.78 89.9425 467.276 89.7631 467.761C89.7562 467.783 89.7427 467.801 89.7247 467.814C89.7067 467.827 89.685 467.834 89.6628 467.834C89.6406 467.834 89.6189 467.827 89.6009 467.814C89.5829 467.801 89.5695 467.783 89.5625 467.761C89.4518 467.205 89.4699 466.631 89.6153 466.083Z" fill="black"/>
    <path opacity="0.1" d="M86.5544 464.383C87.1379 463.38 88.0357 462.598 89.1089 462.156C89.1722 462.156 89.2461 462.209 89.1828 462.262C88.3759 462.895 87.6924 463.672 87.1666 464.552C86.8948 464.999 86.7188 465.497 86.6498 466.014C86.5807 466.532 86.6201 467.059 86.7655 467.561C86.7655 467.561 86.7655 467.624 86.6916 467.561C86.3821 467.094 86.2057 466.551 86.1816 465.991C86.1574 465.431 86.2863 464.876 86.5544 464.383Z" fill="black"/>
    <path d="M90.1536 343.845C90.6603 341.987 86.0368 335.4 84.274 333.236C82.5111 331.072 72.8102 327.726 69.7068 329.426C68.4928 330.091 66.2338 334.757 63.1832 338.799C58.4541 345.07 52.9439 351.646 54.9495 353.409C59.8053 357.705 70.8996 350.928 74.4991 348.659C78.0987 346.389 81.3816 343.613 82.2578 343.708C83.4189 343.835 85.8468 345.671 86.8285 345.819C87.5174 345.865 88.2042 345.702 88.798 345.349C89.3917 344.997 89.8644 344.472 90.1536 343.845Z" fill="#86C6C5"/>
    <path opacity="0.1" d="M90.1536 343.845C90.6603 341.987 86.0368 335.4 84.274 333.236C82.5111 331.072 72.8102 327.726 69.7068 329.426C68.4928 330.091 66.2338 334.757 63.1832 338.799C58.4541 345.07 52.9439 351.646 54.9495 353.409C59.8053 357.705 70.8996 350.928 74.4991 348.659C78.0987 346.389 81.3816 343.613 82.2578 343.708C83.4189 343.835 85.8468 345.671 86.8285 345.819C87.5174 345.865 88.2042 345.702 88.798 345.349C89.3917 344.997 89.8644 344.472 90.1536 343.845Z" fill="black"/>
    <path d="M112.554 337.279C123.88 344.056 128.905 362.065 129.211 364.946C129.464 367.29 134.858 375.608 133.898 384.549C133.275 390.291 122.951 397.923 114.549 397.849C113.008 397.849 99.9288 402.578 88.8767 401.818C77.8246 401.058 69.4643 393.215 69.1371 392.55C68.8098 391.885 59.7739 390.597 59.2461 381.361C58.3489 366.583 73.3911 341.502 77.6874 338.082C84.8126 332.434 104.806 332.677 112.554 337.279Z" fill="#86C6C5"/>
    <path d="M107.17 345.101C106.959 343.096 112.838 337.068 115.034 335.073C117.23 333.078 127.849 331.262 130.783 333.543C131.934 334.44 133.507 339.644 135.998 344.352C139.851 351.646 144.443 359.384 142.12 360.882C136.357 364.535 125.97 355.668 122.613 352.702C119.256 349.735 116.279 346.368 115.382 346.284C114.158 346.22 111.329 347.719 110.305 347.666C109.585 347.603 108.901 347.324 108.342 346.867C107.783 346.409 107.375 345.794 107.17 345.101Z" fill="#86C6C5"/>
    <path opacity="0.1" d="M107.17 345.101C106.959 343.096 112.838 337.068 115.034 335.073C117.23 333.078 127.849 331.262 130.783 333.543C131.934 334.44 133.507 339.644 135.998 344.352C139.851 351.646 144.443 359.384 142.12 360.882C136.357 364.535 125.97 355.668 122.613 352.702C119.256 349.735 116.279 346.368 115.382 346.284C114.158 346.22 111.329 347.719 110.305 347.666C109.585 347.603 108.901 347.324 108.342 346.867C107.783 346.409 107.375 345.794 107.17 345.101Z" fill="black"/>
    <path opacity="0.1" d="M86.4805 370.362C93.4263 370.425 96.5931 377.867 97.427 379.799C98.2609 381.73 102.557 386.132 102.705 390.808C102.853 395.485 94.0175 400.626 84.7599 398.989C75.5023 397.353 70.6149 392.139 70.6677 387.431C70.6677 383.641 74.2778 380.358 74.679 379.366C75.0801 378.374 80.1575 370.298 86.4805 370.362Z" fill="black"/>
    <path opacity="0.1" d="M103.56 383.43C104.489 384.486 105.273 385.661 105.893 386.924C106.539 388.195 106.998 389.554 107.255 390.956C107.548 392.412 107.39 393.922 106.801 395.284C106.483 395.956 106.022 396.551 105.45 397.026C104.882 397.458 104.242 397.787 103.56 397.997C104.703 397.294 105.577 396.227 106.041 394.968C106.414 393.721 106.472 392.4 106.21 391.125C105.98 389.804 105.627 388.506 105.154 387.251C104.658 385.974 104.109 384.697 103.56 383.43Z" fill="black"/>
    <path opacity="0.1" d="M71.7335 380.654C71.1318 381.403 70.5618 382.132 70.034 382.871C69.5136 383.592 69.0646 384.363 68.6934 385.172C68.3456 385.96 68.1384 386.803 68.0811 387.663C68.0909 388.568 68.2588 389.465 68.5773 390.312C67.871 389.61 67.4085 388.7 67.2578 387.716C67.1536 386.702 67.3174 385.68 67.7328 384.749C68.5701 382.975 69.9789 381.532 71.7335 380.654Z" fill="black"/>
    <path d="M180.259 480.07C168.891 480.07 156.34 479.869 143.725 479.637C137.223 479.521 132.114 479.426 128.884 479.426C112.49 479.426 107.772 458.314 103.212 437.983C102.578 435.144 101.945 432.304 101.28 429.538C99.971 424.081 98.9048 418.581 97.8598 413.25C94.693 396.773 91.8745 382.554 84.6121 381.773C75.0167 380.717 66.4769 395.094 63.3629 417.483L61.2518 417.198C64.5347 393.595 74.0033 378.5 84.8126 379.672C93.6268 380.612 96.5403 395.506 99.9076 412.849C100.963 418.127 102.019 423.638 103.307 429.042C103.982 431.84 104.616 434.7 105.259 437.55C109.841 458.008 114.169 477.336 128.863 477.336C132.082 477.336 137.233 477.431 143.746 477.547C158.018 477.821 177.526 478.18 194.098 477.853C220.932 477.325 224.109 475.214 224.436 474.57C224.436 470.179 196.104 464.901 185.442 462.906C174.781 460.911 174.253 460.794 174.369 459.496C174.485 458.198 175.794 458.303 177.8 458.303H222.072C235.953 458.303 240.428 438.331 243.11 426.393C243.568 423.829 244.25 421.311 245.147 418.866C248.25 412.406 256.104 413.346 256.431 413.388L256.157 415.499C255.882 415.499 249.485 414.718 247.047 419.795C246.236 422.1 245.607 424.464 245.168 426.868C242.35 439.419 237.652 460.425 222.072 460.425H183.648L185.854 460.837C211.632 465.65 226.558 469.461 226.558 474.665C226.554 474.949 226.49 475.229 226.372 475.487C226.254 475.745 226.084 475.975 225.872 476.164C222.737 479.215 204.084 480.07 180.259 480.07Z" fill="#263238"/>
    <path d="M69.0117 415.934L56.0722 415.158L55.6067 422.924L68.5462 423.7L69.0117 415.934Z" fill="#455A64"/>
    <path d="M66.7137 413.33L58.6424 412.846L58.4946 415.312L66.5659 415.796L66.7137 413.33Z" fill="#37474F"/>
    <path d="M59.8967 423.189L58.3688 423.098L58.0139 429.02L59.5418 429.111L59.8967 423.189Z" fill="#86C6C5"/>
    <path d="M65.745 423.528L64.2277 423.437L63.8727 429.359L65.3901 429.45L65.745 423.528Z" fill="#86C6C5"/>
    <path d="M260.389 407.941V420.904H266.058V407.941H260.389Z" fill="#455A64"/>
    <path d="M255.819 410.379V418.465H260.4V410.379H255.819Z" fill="#37474F"/>
    <path d="M77.7187 381.625C77.7187 381.625 80.4738 384.792 81.5399 384.137C82.6061 383.483 85.2767 377.191 85.2767 377.191C85.2767 377.191 85.9206 385.172 87.979 385.393C90.0374 385.615 93.5631 382.459 93.5631 382.459L85.2345 376.685L77.7187 381.625Z" fill="#86C6C5"/>
    <path opacity="0.1" d="M77.7187 381.625C77.7187 381.625 80.4738 384.792 81.5399 384.137C82.6061 383.483 85.2767 377.191 85.2767 377.191C85.2767 377.191 85.9206 385.172 87.979 385.393C90.0374 385.615 93.5631 382.459 93.5631 382.459L85.2345 376.685L77.7187 381.625Z" fill="black"/>
    <path opacity="0.1" d="M118.517 371.713C119.338 369.145 119.625 366.437 119.362 363.754C119.243 362.366 118.919 361.004 118.401 359.711C118.12 359.044 117.766 358.411 117.346 357.821C116.942 357.211 116.467 356.651 115.931 356.153C115.663 355.904 115.377 355.675 115.076 355.467C114.77 355.256 114.453 355.087 114.147 354.897L113.672 354.633L113.176 354.433C112.833 354.284 112.48 354.157 112.121 354.053C110.752 353.651 109.318 353.515 107.898 353.652C105.18 353.911 102.589 354.931 100.425 356.597C102.828 355.681 105.379 355.212 107.951 355.214C109.163 355.229 110.365 355.443 111.508 355.847C111.793 355.932 112.057 356.09 112.332 356.196L112.733 356.375L113.113 356.618C113.356 356.776 113.62 356.913 113.862 357.082C114.096 357.25 114.318 357.433 114.527 357.631C115.398 358.427 116.095 359.394 116.575 360.471C117.097 361.593 117.483 362.773 117.726 363.986C118.253 366.528 118.519 369.117 118.517 371.713Z" fill="black"/>
    <path opacity="0.1" d="M67.0257 366.319C67.1396 364.123 67.4935 361.946 68.0813 359.827C68.5862 357.862 69.6936 356.105 71.2481 354.802C71.6375 354.518 72.0548 354.274 72.4937 354.074C72.9208 353.888 73.3722 353.763 73.8343 353.704C74.8494 353.589 75.8754 353.61 76.8849 353.768C79.0572 354.153 81.196 354.707 83.2818 355.425C82.4061 354.686 81.4542 354.042 80.4423 353.504C79.9356 353.24 79.3867 352.997 78.88 352.765C78.3377 352.547 77.7846 352.356 77.2227 352.195C76.0552 351.836 74.8305 351.7 73.6126 351.794C72.9578 351.842 72.3156 351.999 71.7125 352.258C71.1276 352.508 70.5748 352.827 70.0658 353.208C69.0658 353.971 68.2504 354.948 67.6801 356.069C67.1486 357.142 66.7922 358.293 66.6245 359.478C66.2529 361.76 66.3899 364.096 67.0257 366.319Z" fill="black"/>
    <path d="M101.322 368.398C101.322 368.282 101.597 368.557 101.586 368.694C101.333 371.861 101.586 375.555 104.753 376.748C104.848 376.748 104.827 376.949 104.753 376.927C100.879 376.262 100.53 371.375 101.322 368.398Z" fill="#263238"/>
    <path d="M104.594 365.21C110.231 365.063 110.221 375.355 104.995 375.492C99.7703 375.629 99.8864 365.326 104.594 365.21Z" fill="#263238"/>
    <path d="M79.5448 365.897C79.5448 365.78 79.2597 366.023 79.2492 366.16C79.0592 369.327 78.1936 372.948 75.0268 373.697C74.9318 373.697 74.9212 373.877 75.0268 373.877C78.9008 373.75 79.9248 368.958 79.5448 365.897Z" fill="#263238"/>
    <path d="M76.7581 362.286C71.2056 361.357 69.77 371.554 74.9213 372.41C80.0726 373.265 81.4238 363.046 76.7581 362.286Z" fill="#263238"/>
    <path d="M85.0133 376.896C86.0689 377.223 92.9725 375.027 92.4025 372.916C91.8219 370.636 82.0471 370.098 80.7909 371.576C79.5348 373.053 83.9683 376.558 85.0133 376.896Z" fill="#263238"/>
    <path d="M93.6897 382.353C92.579 383.193 91.3956 383.931 90.1535 384.559C89.5597 384.878 88.9046 385.065 88.2323 385.108C87.8312 385.182 87.4934 384.644 87.2611 384.127C86.8398 383.042 86.5458 381.912 86.385 380.759C86.1739 379.609 86.0578 378.426 85.9311 377.276L85.6039 374.109L84.6433 377.223C84.3477 378.184 83.9994 379.144 83.651 380.105C83.3009 381.062 82.8847 381.993 82.4054 382.892C82.2881 383.115 82.1503 383.327 81.9937 383.525C81.8653 383.723 81.7006 383.895 81.5081 384.032C81.3276 384.119 81.1226 384.141 80.9276 384.095C80.6621 384.021 80.4068 383.915 80.1675 383.778C79.2217 383.164 78.3776 382.405 77.6658 381.53C78.177 382.536 78.8967 383.421 79.777 384.127C80.0527 384.34 80.3635 384.505 80.6953 384.612C80.8992 384.663 81.1081 384.691 81.3181 384.697C81.5527 384.698 81.7843 384.644 81.9937 384.538C82.2893 384.375 82.5538 384.16 82.7749 383.905C82.9664 383.689 83.1427 383.459 83.3027 383.219C83.8917 382.321 84.397 381.37 84.8122 380.379C85.2344 379.419 85.5933 378.448 85.8678 377.466L84.5694 377.371C84.663 378.565 84.8251 379.753 85.0549 380.928C85.1716 381.527 85.3196 382.119 85.4983 382.702C85.6725 383.312 85.9095 383.903 86.2055 384.464C86.3702 384.782 86.58 385.073 86.8283 385.33C86.9883 385.495 87.1782 385.627 87.3878 385.721C87.5242 385.786 87.6704 385.829 87.8206 385.847C87.9503 385.863 88.0815 385.863 88.2112 385.847C89.0249 385.761 89.8064 385.482 90.4913 385.034C91.6796 384.298 92.7567 383.395 93.6897 382.353Z" fill="#263238"/>
    <path d="M40.6671 418.877C44.8596 418.633 49.0661 418.92 53.1865 419.732C48.994 419.975 44.7876 419.688 40.6671 418.877Z" fill="#263238"/>
    <path d="M71.0581 425.559C73.038 426.247 74.9674 427.072 76.8322 428.029C78.7107 428.953 80.5205 430.012 82.2474 431.196C78.2943 429.793 74.5347 427.895 71.0581 425.548V425.559Z" fill="#263238"/>
    <path d="M47.3702 440.105C49.4471 436.456 51.9797 433.086 54.9072 430.077C53.8853 431.917 52.7317 433.681 51.4554 435.355C50.2087 437.033 48.8435 438.621 47.3702 440.105Z" fill="#263238"/>
    <path d="M35.4948 406.4C37.131 406.917 38.7249 407.508 40.3083 408.12C41.8917 408.733 43.4751 409.387 45.0374 410.052C46.5997 410.717 48.2042 411.403 49.6926 412.163C51.181 412.923 52.7749 413.631 54.2739 414.454C52.6377 413.926 51.0437 413.335 49.4603 412.723C47.877 412.111 46.2936 411.456 44.7313 410.791C43.169 410.126 41.5645 409.44 40.0761 408.68C38.5877 407.92 37.0043 407.213 35.4948 406.4Z" fill="#263238"/>
    <path d="M72.578 415.752C74.0486 415.013 75.5817 414.406 77.1592 413.937C78.7249 413.44 80.3325 413.086 81.9622 412.881C79.0134 414.35 75.843 415.324 72.578 415.763V415.752Z" fill="#263238"/>
    <path d="M57.3983 410.411C56.5327 409.039 55.7515 407.635 54.9809 406.189C54.2104 404.742 53.4714 403.338 52.7431 401.892C52.0147 400.446 51.318 399 50.6319 397.522C49.9458 396.044 49.3124 394.577 48.7424 393.057C49.608 394.429 50.3997 395.844 51.1702 397.279C51.9408 398.715 52.6797 400.129 53.4081 401.565C54.1365 403.001 54.8226 404.457 55.5193 405.935C56.216 407.413 56.8282 408.891 57.3983 410.411Z" fill="#263238"/>
    <path d="M78.7745 443.799C77.8351 442.744 76.9589 441.593 76.1039 440.464C75.2489 439.334 74.4255 438.163 73.6021 437.001C72.7788 435.84 72.0082 434.647 71.2587 433.433C70.5092 432.22 69.7598 431.006 69.0842 429.749C70.0237 430.805 70.8998 431.956 71.7548 433.085C72.6099 434.215 73.4438 435.386 74.2566 436.548C75.0694 437.709 75.8505 438.901 76.6 440.115C77.3495 441.329 78.099 442.533 78.7745 443.799Z" fill="#263238"/>
    <path d="M362.666 179.225H275.41L268.654 119.964H355.91L362.666 179.225Z" fill="#A6A6A6"/>
    <path d="M357.916 175.256H279.263L273.415 123.944H352.068L357.916 175.256Z" fill="#BCDDDD"/>
    <path d="M309.337 150.935L308.081 152.434L295.709 141.752L296.965 140.253L309.337 150.935Z" fill="#86C6C5"/>
    <path d="M306.149 140.253L307.88 141.752L298.897 152.434L297.166 150.935L306.149 140.253Z" fill="#86C6C5"/>
    <path d="M335.79 150.935L334.534 152.434L322.162 141.752L323.419 140.253L335.79 150.935Z" fill="#86C6C5"/>
    <path d="M332.602 140.253L334.334 141.752L325.351 152.434L323.619 150.935L332.602 140.253Z" fill="#86C6C5"/>
    <path d="M294.126 161.206L293.788 159.095H341.744L342.082 161.206H294.126Z" fill="#86C6C5"/>
    <path d="M388.274 175.256H276.022V179.236H388.274V175.256Z" fill="#A6A6A6"/>
    <path d="M397.753 175.256H300.406V179.236H397.753V175.256Z" fill="#C7C7C7"/>
    <path d="M352.353 126.435L352.068 123.944H273.415L273.7 126.435H352.353Z" fill="#263238"/>
    <path d="M280.034 125.189C280.046 125.349 280.116 125.499 280.231 125.612C280.345 125.724 280.496 125.792 280.657 125.802C280.731 125.8 280.805 125.782 280.871 125.749C280.938 125.716 280.997 125.668 281.044 125.61C281.09 125.551 281.123 125.483 281.14 125.411C281.157 125.338 281.158 125.262 281.142 125.189C281.132 125.027 281.063 124.875 280.949 124.76C280.834 124.645 280.681 124.576 280.519 124.566C280.444 124.569 280.371 124.589 280.304 124.623C280.237 124.657 280.178 124.706 280.132 124.765C280.086 124.825 280.053 124.893 280.036 124.966C280.019 125.04 280.018 125.116 280.034 125.189Z" fill="#C7C7C7"/>
    <path d="M277.754 125.189C277.769 125.35 277.841 125.5 277.957 125.613C278.073 125.725 278.226 125.792 278.387 125.802C278.461 125.798 278.534 125.779 278.6 125.745C278.666 125.712 278.724 125.664 278.77 125.606C278.816 125.548 278.849 125.481 278.867 125.409C278.884 125.337 278.887 125.262 278.873 125.189C278.861 125.028 278.791 124.877 278.677 124.762C278.563 124.648 278.411 124.579 278.25 124.566C278.175 124.57 278.101 124.589 278.034 124.623C277.966 124.658 277.907 124.706 277.86 124.765C277.813 124.824 277.779 124.892 277.761 124.966C277.743 125.039 277.74 125.115 277.754 125.189Z" fill="#BCDDDD"/>
    <path d="M275.484 125.189C275.497 125.349 275.567 125.499 275.681 125.612C275.795 125.724 275.947 125.792 276.107 125.802C276.182 125.8 276.255 125.782 276.322 125.749C276.389 125.716 276.448 125.668 276.494 125.61C276.54 125.551 276.573 125.483 276.59 125.411C276.607 125.338 276.608 125.262 276.593 125.189C276.583 125.027 276.514 124.875 276.399 124.76C276.284 124.645 276.132 124.576 275.97 124.566C275.895 124.569 275.821 124.589 275.754 124.623C275.687 124.657 275.629 124.706 275.583 124.765C275.536 124.825 275.504 124.893 275.487 124.966C275.47 125.04 275.469 125.116 275.484 125.189Z" fill="#86C6C5"/>
</svg>
